<svg width="307" height="152" viewBox="0 0 307 152" fill="none" xmlns="http://www.w3.org/2000/svg">
<path d="M152.898 135.4C139.298 135.4 128.298 129.733 119.898 118.4C111.631 107.067 107.498 90.6 107.498 69C107.498 47.4 111.631 31.1333 119.898 20.2C128.298 9.13334 139.298 3.60001 152.898 3.60001C166.498 3.60001 177.431 9.13334 185.698 20.2C194.098 31.1333 198.298 47.4 198.298 69C198.298 90.6 194.098 107.067 185.698 118.4C177.431 129.733 166.498 135.4 152.898 135.4ZM152.898 112.6C156.231 112.6 159.231 111.4 161.898 109C164.564 106.467 166.631 102.067 168.098 95.8C169.698 89.5333 170.498 80.6 170.498 69C170.498 57.4 169.698 48.5333 168.098 42.4C166.631 36.2667 164.564 32.0667 161.898 29.8C159.231 27.5333 156.231 26.4 152.898 26.4C149.698 26.4 146.764 27.5333 144.098 29.8C141.431 32.0667 139.298 36.2667 137.698 42.4C136.098 48.5333 135.298 57.4 135.298 69C135.298 80.6 136.098 89.5333 137.698 95.8C139.298 102.067 141.431 106.467 144.098 109C146.764 111.4 149.698 112.6 152.898 112.6Z" fill="white"/>
<path d="M237.762 80.2H264.562V59.6C264.562 55.4667 264.695 50.7333 264.962 45.4C265.362 39.9333 265.628 35.2 265.762 31.2H264.962C263.362 34.6667 261.695 38.2 259.962 41.8C258.228 45.4 256.428 49 254.562 52.6L237.762 80.2ZM264.562 133V102.6H209.562V82.4L255.962 6H291.962V80.2H306.562V102.6H291.962V133H264.562Z" fill="white"/>
<path d="M89.2578 34.5104C81.5107 33.1262 74.1802 29.4733 68.3491 23.6454C62.518 17.8175 58.8632 10.4909 57.4783 2.74807C65.319 -2.16405 76.6897 -0.426078 84.5617 7.44164C92.4232 15.3094 94.1621 26.6739 89.2578 34.5104ZM83.8432 39.922C76.4085 37.8406 69.432 33.99 63.7155 28.2765C57.9989 22.5527 54.1358 15.5904 52.0741 8.15973C47.1698 15.9962 48.9087 27.3503 56.7702 35.218C64.6422 43.0753 75.992 44.8133 83.8432 39.922ZM52.6989 74.7544C42.9214 74.7544 35.9241 80.8633 29.7494 86.2542C22.9291 92.207 17.0251 97.3793 8.33052 94.6943C6.61243 93.4246 6.56037 92.3943 6.53955 92.0405C6.41459 89.6885 9.26766 86.5351 10.6734 85.3696C10.8504 85.2239 10.9441 85.0365 11.0795 84.87C13.3703 85.6714 16.0151 85.203 17.8477 83.3714L62.3931 46.7282C58.707 45.1672 55.1979 42.8984 52.1366 39.8388C49.0753 36.7791 46.8157 33.2615 45.2538 29.5878L8.60125 74.1091C6.96646 75.743 6.49789 77.991 6.94564 80.0932C6.81027 80.1764 6.65408 80.2181 6.52913 80.3221C5.83148 80.8945 -0.291164 86.098 0.0108037 92.3631C0.11493 94.559 1.08331 97.7435 5.05053 100.397L5.83148 100.782C8.38259 101.636 10.7567 102 12.985 102C21.7004 102 28.1979 96.3282 34.0706 91.1871C39.8913 86.1085 45.3788 81.3004 52.7093 81.3004C60.3025 81.3004 67.1244 84.9587 72.3446 89C78.7285 93.9421 71.717 88.457 71.7915 88.5543C72.8328 90.0426 74.8841 90.3756 76.3522 89.3245C77.8308 88.2838 78.1745 86.244 77.1332 84.7662C76.7972 84.2995 76.8375 84.1539 75.9759 83.5C69.9065 78.8935 61.8949 74.7544 52.6989 74.7544Z" fill="white"/>
<path fill-rule="evenodd" clip-rule="evenodd" d="M99.0655 96.4105C97.0467 100.303 93.5635 103.5 88.5 103.5C83.9464 103.5 78.8677 101.179 75.4695 96.0464C74.9276 100.181 74.4433 104.896 73.9893 110.253C73.0125 121.779 73.8758 130.593 75.3007 136.874C76.7464 143.247 78.7227 146.817 79.7778 148.048L75.2222 151.952C73.2773 149.683 71.0035 145.053 69.4493 138.201C67.8742 131.257 66.9875 121.821 68.0107 109.747C69.2589 95.0176 70.7776 84.3987 73.3658 77.2311C74.673 73.6114 76.3231 70.6631 78.5256 68.4896C80.7812 66.2639 83.47 64.9959 86.555 64.5332C91.7244 63.7578 95.6203 66.365 98.0466 70.0689C100.396 73.6546 101.545 78.436 101.708 83.0555C101.871 87.6855 101.06 92.5657 99.0655 96.4105ZM77.6677 83.7486C78.0828 82.09 78.5282 80.601 79.0092 79.269C80.1395 76.1387 81.3957 74.0869 82.74 72.7604C84.0313 71.4861 85.53 70.7541 87.445 70.4668C89.7296 70.1241 91.538 71.0828 93.0277 73.3568C94.5948 75.749 95.5735 79.3574 95.7116 83.2673C95.8493 87.1669 95.1356 90.9559 93.7393 93.648C92.3677 96.2926 90.5954 97.5 88.5 97.5C84.8297 97.5 78.5739 94.5141 77.6677 83.7486Z" fill="white"/>
</svg>
