<svg width="1200" height="1200" viewBox="0 0 1200 1200" fill="none" xmlns="http://www.w3.org/2000/svg">
<path d="M722.906 475.218H792.311V725.079H722.906V475.218V475.218ZM977.488 475.218V607.304L875.09 475.218H810.739V725.079H879.103V588.073L985.513 725.079H1046V475.218H977.488ZM636.114 475.218H567.007V522.626C543.823 493.406 507.263 474.622 464.164 474.622C397.583 474.622 346.013 519.793 336.056 578.979H283.148V629.666H332.192V660.079C321.937 666.788 309.008 670.366 292.363 670.366C252.83 670.366 224.742 641.444 224.742 601.192V600.446H225.039C225.039 562.282 252.83 531.869 288.647 531.869C302.766 531.72 316.736 535.149 329.071 541.857C337.542 522.029 350.323 504.289 366.374 489.977C344.824 477.305 320.005 470 288.201 470H288.053C210.92 470 154 527.247 154 599.999V600.745C154 676.329 211.961 729.998 289.539 729.998C323.572 730.147 356.862 720.01 384.951 700.927C406.352 716.432 433.4 725.526 463.569 725.526C506.817 725.526 543.823 706.443 567.007 676.776V724.93H704.626V664.402H636.114V475.218ZM525.394 600.894C525.394 635.63 501.021 665.297 464.164 665.297C427.753 665.297 402.636 635.033 402.636 600.148V599.403C402.636 564.518 427.01 535 463.421 535C500.129 535 525.246 565.263 525.246 600.148V600.894H525.394Z" fill="#191445"/>
</svg>
