<svg width="12px" height="18px" viewBox="0 0 12 18" xmlns="http://www.w3.org/2000/svg">
    <g id="Page-1" stroke="none" stroke-width="1" fill="none" fill-rule="evenodd" stroke-linecap="round">
        <g id="Citi" transform="translate(-925.000000, -388.000000)" stroke="#4333FF" stroke-width="2">
            <g id="mazÄ-bulta" transform="translate(931.000000, 397.000000) rotate(-180.000000) translate(-931.000000, -397.000000) translate(925.000000, 389.000000)">
                <g id="Group-7" transform="translate(6.000000, 4.000000) scale(-1, -1) translate(-6.000000, -4.000000) ">
                    <path d="M0.800412409,7.1210371 C2.91999637,6.165714 4.94653563,5.02860094 6.8800302,3.70969791 C8.81352477,2.39079488 10.2189347,1.38260746 11.0962599,0.685135637" id="Path-5" transform="translate(5.948336, 3.903086) rotate(-8.000000) translate(-5.948336, -3.903086) "></path>
                </g>
                <g id="Group-7" transform="translate(6.000000, 12.000000) scale(-1, 1) translate(-6.000000, -12.000000) translate(0.000000, 8.000000)">
                    <path d="M0.800412409,7.1210371 C2.91999637,6.165714 4.94653563,5.02860094 6.8800302,3.70969791 C8.81352477,2.39079488 10.2189347,1.38260746 11.0962599,0.685135637" id="Path-5" transform="translate(5.948336, 3.903086) rotate(-8.000000) translate(-5.948336, -3.903086) "></path>
                </g>
            </g>
        </g>
    </g>
</svg>