<svg width="64px" height="101px" viewBox="0 0 64 101" version="1.1" xmlns="http://www.w3.org/2000/svg" xmlns:xlink="http://www.w3.org/1999/xlink">
    <g id="Page-1" stroke="none" stroke-width="1" fill="none" fill-rule="evenodd" stroke-linecap="round">
        <g id="Citi" transform="translate(-230.000000, -229.000000)" stroke="#4333FF" stroke-width="2">
            <g id="lielÄ-bulta" transform="translate(231.000000, 230.000000)">
                <path d="M0,31.8183072 C13.4029075,38.9436377 34.0070197,37.3606403 43.430329,23.9471416 C47.4837296,18.1773764 50.0673479,3.44990896 40.5572115,0.795088628 C18.4408143,-5.37885656 9.48909011,25.9017323 11.0744003,42.8308399 C13.0133703,63.5365862 33.1641055,83.2189305 50.6220179,91.8326172 C53.7746662,93.3881253 57.1824566,95.2198732 60.6912719,94.9784212 C62.3729081,94.8627028 56.735708,85.7202312 54.5980714,83.4834249" id="Path-4"></path>
                <path d="M46.1242684,97.369058 C51.281604,97.7545419 55.119589,97.7588083 57.6382232,97.3818571 C60.1568575,97.0049059 61.3518844,96.5470324 61.223304,96.0082365" id="Path-5" transform="translate(53.678470, 96.834822) rotate(-8.000000) translate(-53.678470, -96.834822) "></path>
            </g>
        </g>
    </g>
</svg>