<?xml version="1.0" encoding="UTF-8"?>
<svg width="29px" height="29px" viewBox="0 0 29 29" version="1.1" xmlns="http://www.w3.org/2000/svg" xmlns:xlink="http://www.w3.org/1999/xlink">
    <!-- Generator: sketchtool 55.1 (78136) - https://sketchapp.com -->
    <title>278231F8-E0A6-4755-A49C-3B36175E27AA</title>
    <desc>Created with sketchtool.</desc>
    <g id="Page-1" stroke="none" stroke-width="1" fill="none" fill-rule="evenodd">
        <g id="MOB_sÄkums" transform="translate(-282.000000, -83.000000)" fill="#191445">
            <g id="Group-10" transform="translate(256.000000, 69.000000)">
                <g id="Group-3" transform="translate(15.000000, 0.000000)">
                    <g id="telefona-ikona" transform="translate(11.000000, 15.000000)">
                        <path d="M14.5,1.26576577 C21.245214,1.26576577 26.7342342,6.75478604 26.7342342,13.5 C26.7342342,20.245214 21.245214,25.7342342 14.5,25.7342342 C7.75478604,25.7342342 2.26576577,20.245214 2.26576577,13.5 C2.26576577,6.75478604 7.75478604,1.26576577 14.5,1.26576577 L14.5,1.26576577 Z M14.5,-0.5 C6.76855469,-0.5 0.5,5.76855469 0.5,13.5 C0.5,21.2314453 6.76855469,27.5 14.5,27.5 C22.2314453,27.5 28.5,21.2314453 28.5,13.5 C28.5,5.76855469 22.2314453,-0.5 14.5,-0.5 Z M22.1235952,18.0228543 L22.045512,17.7852485 C21.8622499,17.2387821 21.2581639,16.668528 20.7015902,16.5157542 L18.6467202,15.9539724 C18.0901466,15.8029366 17.296011,16.0065987 16.887133,16.4156067 L16.1438763,17.1590008 C13.4424578,16.4275006 11.3230796,14.3077303 10.5933979,11.605812 L11.3366546,10.8624179 C11.7439036,10.4550936 11.9475281,9.66081105 11.7965202,9.10245081 L11.2364713,7.04714639 C11.0854634,6.49046976 10.5118938,5.88627196 9.96552855,5.702976 L9.73133321,5.62487834 C9.18323032,5.44158238 8.4009864,5.62656195 7.99373737,6.03562423 L6.88059004,7.14897748 C6.68206972,7.34585092 6.55479082,7.9109999 6.55479082,7.91273782 C6.51743251,11.4463038 7.90213349,14.8491458 10.3999275,17.3490855 C12.890934,19.8405529 16.2813093,21.2238264 19.8022758,21.1931956 C19.8209549,21.1931956 20.4029952,21.0693147 20.6015156,20.8707033 L21.7146629,19.7573501 C22.1219119,19.3517093 22.3051197,18.5693207 22.1235952,18.0228543 Z" id="Fill-1"></path>
                    </g>
                </g>
            </g>
        </g>
    </g>
</svg>