<?xml version="1.0" encoding="UTF-8"?>
<svg width="28px" height="29px" viewBox="0 0 28 29" version="1.1" xmlns="http://www.w3.org/2000/svg" xmlns:xlink="http://www.w3.org/1999/xlink">
    <!-- Generator: sketchtool 55.1 (78136) - https://sketchapp.com -->
    <title>4EDC7DCB-4A33-4FE1-9AA2-8FD5DA98EAEF</title>
    <desc>Created with sketchtool.</desc>
    <g id="Page-1" stroke="none" stroke-width="1" fill="none" fill-rule="evenodd">
        <g id="Citi" transform="translate(-405.000000, -338.000000)" fill="#191445">
            <path d="M417.399569,338.092647 C411.084475,338.822292 405.955509,344.015334 405.12497,350.539998 C403.948204,359.786019 411.246569,367.652024 420.086858,366.957213 C423.338796,366.701594 426.382703,365.196482 428.767734,362.892736 L428.972593,362.694947 C429.208242,362.467365 429.221093,362.085041 429.001359,361.841033 L428.205382,360.957065 C427.985648,360.713 427.616562,360.69969 427.380914,360.927272 L426.954187,361.339423 C424.301296,363.901393 420.659436,365.054031 416.98553,364.406005 C411.778459,363.48752 407.775564,358.908939 407.368962,353.454443 C406.831329,346.241652 412.448819,340.214237 419.345843,340.421825 C425.705343,340.613327 430.666648,346.234062 430.666648,352.823466 L430.666648,353.708307 C430.666648,355.120585 429.491633,356.253285 428.100656,356.113269 C426.888453,355.991152 426,354.8627 426,353.601199 L426,348.27086 C426,347.937133 425.738812,347.666674 425.416648,347.666674 L424.249999,347.666674 C424.015773,347.666674 423.81682,347.811674 423.724015,348.018016 C422.550148,346.691889 420.869874,345.854173 419,345.854173 C415.461827,345.854173 412.58335,348.835454 412.58335,352.5 C412.58335,356.164529 415.461827,359.145866 419,359.145866 C421.228788,359.145866 423.194038,357.961567 424.344718,356.169966 C425.211077,357.669528 426.820749,358.657737 428.653,358.530579 C431.130508,358.358675 433,356.109417 433,353.537705 L433,352.5 C433,343.958694 425.832163,337.118315 417.399569,338.092647 Z M419.016104,357 C416.535068,357 414.516104,354.981036 414.516104,352.5 C414.516104,350.018964 416.535068,348 419.016104,348 C421.49714,348 423.516104,350.018964 423.516104,352.5 C423.516104,354.981036 421.49714,357 419.016104,357 Z" id="e-pasts"></path>
        </g>
    </g>
</svg>