<svg width="178px" height="121px" viewBox="0 0 178 121" version="1.1" xmlns="http://www.w3.org/2000/svg" xmlns:xlink="http://www.w3.org/1999/xlink">
    <g id="Page-1" stroke="none" stroke-width="1" fill="none" fill-rule="evenodd">
        <g id="incsr">
            <rect id="Rectangle" x="0" y="0" width="178" height="121"></rect>
            <g id="Group-20" transform="translate(35.000000, 28.000000)" fill="#191445">
                <polygon id="Fill-1" points="2.27588321 56.6187286 2.0630365 57.0163 2.0630365 58.3504429 1.3779854 58.3504429 1.3779854 54.0054429 2.0630365 54.0054429 2.0630365 55.8864429 2.07643796 55.8864429 2.96093431 54.0054429 3.6459854 54.0054429 2.69211679 55.9422286 3.6459854 58.3504429 2.94122628 58.3504429"></polygon>
                <path d="M7.12760584,57.3510929 C7.12760584,57.66145 7.26477372,57.7793071 7.48235036,57.7793071 C7.70071533,57.7793071 7.83709489,57.66145 7.83709489,57.3510929 L7.83709489,55.00495 C7.83709489,54.6945929 7.70071533,54.5767357 7.48235036,54.5767357 C7.26477372,54.5767357 7.12760584,54.6945929 7.12760584,55.00495 L7.12760584,57.3510929 Z M6.44255474,55.0481643 C6.44255474,54.3535929 6.81070073,53.9560214 7.48235036,53.9560214 C8.15557664,53.9560214 8.52372263,54.3535929 8.52372263,55.0481643 L8.52372263,57.3078786 C8.52372263,58.0032357 8.15557664,58.4000214 7.48235036,58.4000214 C6.81070073,58.4000214 6.44255474,58.0032357 6.44255474,57.3078786 L6.44255474,55.0481643 Z" id="Fill-2"></path>
                <path d="M12.2364,54.6263929 L12.2364,55.9605357 L12.5036409,55.9605357 C12.7598453,55.9605357 12.9151445,55.8489643 12.9151445,55.5016786 L12.9151445,55.0726786 C12.9151445,54.7631071 12.8087212,54.6263929 12.5667066,54.6263929 L12.2364,54.6263929 Z M12.9837285,58.3506786 C12.9458891,58.2383214 12.9214511,58.1699643 12.9214511,57.8163929 L12.9214511,57.1336071 C12.9214511,56.7305357 12.7842832,56.58125 12.4728964,56.58125 L12.2364,56.58125 L12.2364,58.3506786 L11.5513489,58.3506786 L11.5513489,54.0056786 L12.584838,54.0056786 C13.294327,54.0056786 13.5994073,54.3341071 13.5994073,55.0051071 L13.5994073,55.3461071 C13.5994073,55.7931786 13.4559328,56.0791786 13.1508526,56.2213929 L13.1508526,56.2339643 C13.4937723,56.3761786 13.6065022,56.6991071 13.6065022,57.1524643 L13.6065022,57.8226786 C13.6065022,58.0340357 13.6128088,58.1888214 13.6806044,58.3506786 L12.9837285,58.3506786 Z" id="Fill-3"></path>
                <path d="M17.325565,54.6263929 L17.325565,56.09725 L17.6487766,56.09725 C17.8679299,56.09725 17.9853898,55.9974643 17.9853898,55.6878929 L17.9853898,55.03575 C17.9853898,54.7253929 17.8679299,54.6263929 17.6487766,54.6263929 L17.325565,54.6263929 Z M18.6704409,55.07975 L18.6704409,55.6438929 C18.6704409,56.33925 18.3354044,56.7179643 17.6487766,56.7179643 L17.325565,56.7179643 L17.325565,58.3506786 L16.6405139,58.3506786 L16.6405139,54.0056786 L17.6487766,54.0056786 C18.3354044,54.0056786 18.6704409,54.3843929 18.6704409,55.07975 L18.6704409,55.07975 Z" id="Fill-4"></path>
                <path d="M22.203381,57.3510929 C22.203381,57.66145 22.3405489,57.7793071 22.5581255,57.7793071 C22.7764905,57.7793071 22.9128701,57.66145 22.9128701,57.3510929 L22.9128701,55.00495 C22.9128701,54.6945929 22.7764905,54.5767357 22.5581255,54.5767357 C22.3405489,54.5767357 22.203381,54.6945929 22.203381,55.00495 L22.203381,57.3510929 Z M21.5183299,55.0481643 C21.5183299,54.3535929 21.8864759,53.9560214 22.5581255,53.9560214 C23.2313518,53.9560214 23.5994978,54.3535929 23.5994978,55.0481643 L23.5994978,57.3078786 C23.5994978,58.0032357 23.2313518,58.4000214 22.5581255,58.4000214 C21.8864759,58.4000214 21.5183299,58.0032357 21.5183299,57.3078786 L21.5183299,55.0481643 Z" id="Fill-5"></path>
                <path d="M27.3121752,54.6263929 L27.3121752,55.9605357 L27.5794161,55.9605357 C27.8356204,55.9605357 27.9909197,55.8489643 27.9909197,55.5016786 L27.9909197,55.0726786 C27.9909197,54.7631071 27.8852847,54.6263929 27.6424818,54.6263929 L27.3121752,54.6263929 Z M28.0595036,58.3506786 C28.0216642,58.2383214 27.9972263,58.1699643 27.9972263,57.8163929 L27.9972263,57.1336071 C27.9972263,56.7305357 27.8600584,56.58125 27.5486715,56.58125 L27.3121752,56.58125 L27.3121752,58.3506786 L26.6271241,58.3506786 L26.6271241,54.0056786 L27.6606131,54.0056786 C28.3701022,54.0056786 28.6751825,54.3341071 28.6751825,55.0051071 L28.6751825,55.3461071 C28.6751825,55.7931786 28.531708,56.0791786 28.2266277,56.2213929 L28.2266277,56.2339643 C28.5695474,56.3761786 28.6822774,56.6991071 28.6822774,57.1524643 L28.6822774,57.8226786 C28.6822774,58.0340357 28.6885839,58.1888214 28.7563796,58.3506786 L28.0595036,58.3506786 Z" id="Fill-6"></path>
                <path d="M32.3700438,56.9724571 L33.0298686,56.9724571 L32.7066569,54.7756 L32.6932555,54.7756 L32.3700438,56.9724571 Z M33.9332847,58.3506 L33.2411387,58.3506 L33.1228905,57.5617429 L32.2825401,57.5617429 L32.164292,58.3506 L31.5352117,58.3506 L32.2328759,54.0056 L33.2348321,54.0056 L33.9332847,58.3506 Z" id="Fill-7"></path>
                <polygon id="Fill-8" points="36.4012029 54.0055214 38.5186336 54.0055214 38.5186336 54.6262357 37.8020496 54.6262357 37.8020496 58.3505214 37.1177869 58.3505214 37.1177869 54.6262357 36.4012029 54.6262357"></polygon>
                <path d="M41.4026277,54.0052857 L42.0876788,54.0052857 L42.0876788,58.3502857 L41.4026277,58.3502857 L41.4026277,54.0052857 Z M42.4621314,53.7515 L41.0297518,53.7515 L41.0297518,53.2675 L42.4621314,53.2675 L42.4621314,53.7515 Z" id="Fill-9"></path>
                <polygon id="Fill-10" points="46.1999562 57.5497214 46.211781 57.5497214 46.729708 54.0053643 47.3587883 54.0053643 46.685562 58.3503643 45.6638978 58.3503643 44.9922482 54.0053643 45.6836058 54.0053643"></polygon>
                <path d="M50.7594482,56.9724571 L51.419273,56.9724571 L51.0960613,54.7756 L51.0826599,54.7756 L50.7594482,56.9724571 Z M51.8370832,53.7510286 L50.4047036,53.7510286 L50.4047036,53.2670286 L51.8370832,53.2670286 L51.8370832,53.7510286 Z M52.3226891,58.3506 L51.6305431,58.3506 L51.5122949,57.5617429 L50.6719445,57.5617429 L50.5536964,58.3506 L49.9246161,58.3506 L50.6222803,54.0056 L51.6242365,54.0056 L52.3226891,58.3506 Z" id="Fill-11"></path>
                <path d="M56.1486482,53.9561 C56.8139912,53.9561 57.1569109,54.3536714 57.1569109,55.0482429 L57.1569109,55.1849571 L56.5096993,55.1849571 L56.5096993,55.0050286 C56.5096993,54.6946714 56.3851445,54.5768143 56.1667796,54.5768143 C55.9492029,54.5768143 55.8238599,54.6946714 55.8238599,55.0050286 C55.8238599,55.3216714 55.9610277,55.5573857 56.4095825,55.9486714 C56.9819036,56.4507429 57.1640058,56.8113857 57.1640058,57.3071714 C57.1640058,58.0025286 56.8139912,58.4001 56.1423416,58.4001 C55.4691153,58.4001 55.1206774,58.0025286 55.1206774,57.3071714 L55.1206774,57.0408143 L55.7678891,57.0408143 L55.7678891,57.3511714 C55.7678891,57.6615286 55.9050569,57.7731 56.1242102,57.7731 C56.3417869,57.7731 56.4789547,57.6615286 56.4789547,57.3511714 C56.4789547,57.0345286 56.3417869,56.7988143 55.8932321,56.4075286 C55.3201226,55.9046714 55.1388088,55.5448143 55.1388088,55.0482429 C55.1388088,54.3536714 55.4817285,53.9561 56.1486482,53.9561" id="Fill-12"></path>
                <polygon id="Fill-13" points="63.6916204 58.3502857 64.3766715 58.3502857 64.3766715 54.0052857 63.6916204 54.0052857"></polygon>
                <polygon id="Fill-14" points="67.4607416 54.0055214 68.1457927 54.0055214 68.1457927 57.7298071 69.273092 57.7298071 69.273092 58.3505214 67.4607416 58.3505214"></polygon>
                <path d="M73.1852146,55.9295786 L74.1438131,55.9295786 L74.1438131,57.3077214 C74.1438131,58.0030786 73.7953752,58.3998643 73.1237255,58.3998643 C72.4504993,58.3998643 72.1020613,58.0030786 72.1020613,57.3077214 L72.1020613,55.0480071 C72.1020613,54.3534357 72.4504993,53.9558643 73.1237255,53.9558643 C73.7953752,53.9558643 74.1438131,54.3534357 74.1438131,55.0480071 L74.1438131,55.4699357 L73.4973898,55.4699357 L73.4973898,55.0047929 C73.4973898,54.6944357 73.3602219,54.5765786 73.1418569,54.5765786 C72.9242803,54.5765786 72.7871124,54.6944357 72.7871124,55.0047929 L72.7871124,57.3509357 C72.7871124,57.6612929 72.9242803,57.7728643 73.1418569,57.7728643 C73.3602219,57.7728643 73.4973898,57.6612929 73.4973898,57.3509357 L73.4973898,56.5502929 L73.1852146,56.5502929 L73.1852146,55.9295786 Z" id="Fill-15"></path>
                <polygon id="Fill-16" points="76.9737285 54.0055214 79.0914745 54.0055214 79.0914745 54.6262357 78.3745752 54.6262357 78.3745752 58.3505214 77.6903124 58.3505214 77.6903124 54.6262357 76.9737285 54.6262357"></polygon>
                <path d="M82.8982774,53.9561 C83.5636204,53.9561 83.9065401,54.3536714 83.9065401,55.0482429 L83.9065401,55.1849571 L83.2593285,55.1849571 L83.2593285,55.0050286 C83.2593285,54.6946714 83.1347737,54.5768143 82.9164088,54.5768143 C82.6988321,54.5768143 82.5734891,54.6946714 82.5734891,55.0050286 C82.5734891,55.3216714 82.7106569,55.5573857 83.1592117,55.9486714 C83.7315328,56.4507429 83.913635,56.8113857 83.913635,57.3071714 C83.913635,58.0025286 83.5636204,58.4001 82.8919708,58.4001 C82.2187445,58.4001 81.8703066,58.0025286 81.8703066,57.3071714 L81.8703066,57.0408143 L82.5175182,57.0408143 L82.5175182,57.3511714 C82.5175182,57.6615286 82.6546861,57.7731 82.8738394,57.7731 C83.0914161,57.7731 83.2285839,57.6615286 83.2285839,57.3511714 C83.2285839,57.0345286 83.0914161,56.7988143 82.6428613,56.4075286 C82.0697518,55.9046714 81.888438,55.5448143 81.888438,55.0482429 C81.888438,54.3536714 82.2313577,53.9561 82.8982774,53.9561" id="Fill-17"></path>
                <path d="M87.5761752,54.6263929 L87.5761752,56.09725 L87.8993869,56.09725 C88.1177518,56.09725 88.236,55.9974643 88.236,55.6878929 L88.236,55.03575 C88.236,54.7253929 88.1177518,54.6263929 87.8993869,54.6263929 L87.5761752,54.6263929 Z M88.9210511,55.07975 L88.9210511,55.6438929 C88.9210511,56.33925 88.584438,56.7179643 87.8993869,56.7179643 L87.5761752,56.7179643 L87.5761752,58.3506786 L86.8911241,58.3506786 L86.8911241,54.0056786 L87.8993869,54.0056786 C88.584438,54.0056786 88.9210511,54.3843929 88.9210511,55.07975 L88.9210511,55.07975 Z" id="Fill-18"></path>
                <path d="M93.4625693,53.7515 L92.0301898,53.7515 L92.0301898,53.2675 L93.4625693,53.2675 L93.4625693,53.7515 Z M92.5087007,55.8367857 L93.4491679,55.8367857 L93.4491679,56.4575 L92.5087007,56.4575 L92.5087007,57.7295714 L93.6919708,57.7295714 L93.6919708,58.3502857 L91.8236496,58.3502857 L91.8236496,54.0052857 L93.6919708,54.0052857 L93.6919708,54.6267857 L92.5087007,54.6267857 L92.5087007,55.8367857 Z" id="Fill-19"></path>
                <path d="M96.5149489,57.7298071 C96.5890511,57.7360929 96.6765547,57.7360929 96.7514453,57.7360929 C96.9690219,57.7360929 97.1440292,57.6551643 97.1440292,57.3196643 L97.1440292,54.0055214 L97.828292,54.0055214 L97.828292,57.2701643 C97.828292,58.1391643 97.3616058,58.3630929 96.8452555,58.3630929 C96.7207007,58.3630929 96.6268905,58.3630929 96.5149489,58.3505214 L96.5149489,57.7298071 Z" id="Fill-20"></path>
                <path d="M101.534978,56.9724571 L102.194803,56.9724571 L101.871591,54.7756 L101.859766,54.7756 L101.534978,56.9724571 Z M103.099007,58.3506 L102.40765,58.3506 L102.289401,57.5617429 L101.449051,57.5617429 L101.330015,58.3506 L100.701723,58.3506 L101.39781,54.0056 L102.401343,54.0056 L103.099007,58.3506 Z" id="Fill-21"></path>
                <path d="M106.92473,53.9561 C107.59165,53.9561 107.932993,54.3536714 107.932993,55.0482429 L107.932993,55.1849571 L107.285781,55.1849571 L107.285781,55.0050286 C107.285781,54.6946714 107.162015,54.5768143 106.942861,54.5768143 C106.725285,54.5768143 106.601518,54.6946714 106.601518,55.0050286 C106.601518,55.3216714 106.737898,55.5573857 107.187241,55.9486714 C107.759562,56.4507429 107.940088,56.8113857 107.940088,57.3071714 C107.940088,58.0025286 107.59165,58.4001 106.918423,58.4001 C106.245985,58.4001 105.898336,58.0025286 105.898336,57.3071714 L105.898336,57.0408143 L106.544759,57.0408143 L106.544759,57.3511714 C106.544759,57.6615286 106.681927,57.7731 106.900292,57.7731 C107.117869,57.7731 107.255036,57.6615286 107.255036,57.3511714 C107.255036,57.0345286 107.117869,56.7988143 106.669314,56.4075286 C106.096204,55.9046714 105.916467,55.5448143 105.916467,55.0482429 C105.916467,54.3536714 106.25781,53.9561 106.92473,53.9561" id="Fill-22"></path>
                <path d="M4.76114453,61.4563714 L4.76114453,64.8082286 C4.76114453,65.1185857 4.89831241,65.2301571 5.11588905,65.2301571 C5.33425401,65.2301571 5.47063358,65.1185857 5.47063358,64.8082286 L5.47063358,61.4563714 L6.1194219,61.4563714 L6.1194219,64.7642286 C6.1194219,65.4595857 5.7694073,65.8571571 5.09775766,65.8571571 C4.42453139,65.8571571 4.07609343,65.4595857 4.07609343,64.7642286 L4.07609343,61.4563714 L4.76114453,61.4563714 Z" id="Fill-23"></path>
                <polygon id="Fill-24" points="9.79418102 62.6542714 9.78077956 62.6542714 9.78077956 65.8010571 9.16510073 65.8010571 9.16510073 61.4560571 10.0251591 61.4560571 10.7165168 64.0575571 10.7283416 64.0575571 10.7283416 61.4560571 11.3385022 61.4560571 11.3385022 65.8010571 10.6345314 65.8010571"></polygon>
                <path d="M18.6210131,64.4233071 L19.280838,64.4233071 L18.9576263,62.22645 L18.9458015,62.22645 L18.6210131,64.4233071 Z M20.1850423,65.80145 L19.4936847,65.80145 L19.3754365,65.0125929 L18.5350861,65.0125929 L18.4160496,65.80145 L17.7877577,65.80145 L18.4838453,61.45645 L19.4873781,61.45645 L20.1850423,65.80145 Z" id="Fill-25"></path>
                <polygon id="Fill-26" points="22.6521723 61.4563714 24.7696029 61.4563714 24.7696029 62.0770857 24.053019 62.0770857 24.053019 65.8013714 23.3687562 65.8013714 23.3687562 62.0770857 22.6521723 62.0770857"></polygon>
                <path d="M28.340146,63.8459643 L28.340146,65.1808929 L28.7311533,65.1808929 C28.9621314,65.1808929 29.0874745,65.0748214 29.0874745,64.7526786 L29.0874745,64.3739643 C29.0874745,63.9701071 28.9558248,63.8459643 28.6452263,63.8459643 L28.340146,63.8459643 Z M28.340146,62.0773214 L28.340146,63.22525 L28.6073869,63.22525 C28.8635912,63.22525 29.0188905,63.1136786 29.0188905,62.7663929 L29.0188905,62.5243929 C29.0188905,62.2140357 28.9124672,62.0773214 28.6704526,62.0773214 L28.340146,62.0773214 Z M29.7031533,62.4560357 L29.7031533,62.6108214 C29.7031533,63.0578929 29.5667737,63.3376071 29.2609051,63.4798214 L29.2609051,63.4923929 C29.6290511,63.6353929 29.7725255,63.9575357 29.7725255,64.4171786 L29.7725255,64.77075 C29.7725255,65.44175 29.417781,65.8016071 28.7311533,65.8016071 L27.6550949,65.8016071 L27.6550949,61.4566071 L28.6885839,61.4566071 C29.398073,61.4566071 29.7031533,61.7850357 29.7031533,62.4560357 L29.7031533,62.4560357 Z" id="Fill-27"></path>
                <polygon id="Fill-28" points="32.7689343 65.8012143 33.4539854 65.8012143 33.4539854 61.4562143 32.7689343 61.4562143"></polygon>
                <polygon id="Fill-29" points="36.5381343 61.4563714 37.2231854 61.4563714 37.2231854 65.1806571 38.3504847 65.1806571 38.3504847 65.8013714 36.5381343 65.8013714"></polygon>
                <path d="M41.9196088,62.0772429 L41.9196088,65.1808143 L42.3058861,65.1808143 C42.5234628,65.1808143 42.6551124,65.0684571 42.6551124,64.7581 L42.6551124,62.4991714 C42.6551124,62.1888143 42.5234628,62.0772429 42.3058861,62.0772429 L41.9196088,62.0772429 Z M41.2345577,61.4565286 L42.3184993,61.4565286 C43.0035504,61.4565286 43.3401635,61.8352429 43.3401635,62.5306 L43.3401635,64.7274571 C43.3401635,65.4228143 43.0035504,65.8015286 42.3184993,65.8015286 L41.2345577,65.8015286 L41.2345577,61.4565286 Z" id="Fill-30"></path>
                <path d="M46.3619562,61.4562143 L47.0470073,61.4562143 L47.0470073,65.8012143 L46.3619562,65.8012143 L46.3619562,61.4562143 Z M47.4198832,61.2024286 L45.9875036,61.2024286 L45.9875036,60.7184286 L47.4198832,60.7184286 L47.4198832,61.2024286 Z" id="Fill-31"></path>
                <path d="M50.8155766,63.8459643 L50.8155766,65.1808929 L51.2065839,65.1808929 C51.437562,65.1808929 51.5629051,65.0748214 51.5629051,64.7526786 L51.5629051,64.3739643 C51.5629051,63.9701071 51.4312555,63.8459643 51.1206569,63.8459643 L50.8155766,63.8459643 Z M50.8155766,62.0773214 L50.8155766,63.22525 L51.0828175,63.22525 C51.3390219,63.22525 51.4943212,63.1136786 51.4943212,62.7663929 L51.4943212,62.5243929 C51.4943212,62.2140357 51.3878978,62.0773214 51.1458832,62.0773214 L50.8155766,62.0773214 Z M52.1785839,62.4560357 L52.1785839,62.6108214 C52.1785839,63.0578929 52.0422044,63.3376071 51.7363358,63.4798214 L51.7363358,63.4923929 C52.1044818,63.6353929 52.2479562,63.9575357 52.2479562,64.4171786 L52.2479562,64.77075 C52.2479562,65.44175 51.8932117,65.8016071 51.2065839,65.8016071 L50.1305255,65.8016071 L50.1305255,61.4566071 L51.1640146,61.4566071 C51.8735036,61.4566071 52.1785839,61.7850357 52.1785839,62.4560357 L52.1785839,62.4560357 Z" id="Fill-32"></path>
                <path d="M55.8981985,64.4233071 L56.5580234,64.4233071 L56.2348117,62.22645 L56.2229869,62.22645 L55.8981985,64.4233071 Z M57.4622277,65.80145 L56.7708701,65.80145 L56.6526219,65.0125929 L55.8122715,65.0125929 L55.693235,65.80145 L55.0649431,65.80145 L55.7610307,61.45645 L56.7645635,61.45645 L57.4622277,65.80145 Z" id="Fill-33"></path>
                <path d="M61.2873985,61.4070286 C61.9527416,61.4070286 62.2956613,61.8046 62.2956613,62.4991714 L62.2956613,62.6358857 L61.6484496,62.6358857 L61.6484496,62.4559571 C61.6484496,62.1456 61.5238949,62.0277429 61.3055299,62.0277429 C61.0879533,62.0277429 60.9626102,62.1456 60.9626102,62.4559571 C60.9626102,62.7726 61.0997781,63.0083143 61.5483328,63.3996 C62.120654,63.9016714 62.3027562,64.2623143 62.3027562,64.7581 C62.3027562,65.4534571 61.9527416,65.8510286 61.281092,65.8510286 C60.6078657,65.8510286 60.2594277,65.4534571 60.2594277,64.7581 L60.2594277,64.4917429 L60.9066394,64.4917429 L60.9066394,64.8021 C60.9066394,65.1124571 61.0438073,65.2240286 61.2629606,65.2240286 C61.4805372,65.2240286 61.6177051,65.1124571 61.6177051,64.8021 C61.6177051,64.4854571 61.4805372,64.2497429 61.0319825,63.8584571 C60.458873,63.3556 60.2775591,62.9957429 60.2775591,62.4991714 C60.2775591,61.8046 60.6204788,61.4070286 61.2873985,61.4070286" id="Fill-34"></path>
                <polygon id="Fill-35" points="68.8314745 65.8012143 69.5165255 65.8012143 69.5165255 61.4562143 68.8314745 61.4562143"></polygon>
                <polygon id="Fill-36" points="73.223054 62.6542714 73.2096526 62.6542714 73.2096526 65.8010571 72.5931854 65.8010571 72.5931854 61.4560571 73.4524555 61.4560571 74.1438131 64.0575571 74.1572146 64.0575571 74.1572146 61.4560571 74.7665869 61.4560571 74.7665869 65.8010571 74.0634044 65.8010571"></polygon>
                <path d="M78.766292,61.4070286 C79.4336058,61.4070286 79.7749489,61.8046 79.7749489,62.4991714 L79.7749489,62.6358857 L79.1277372,62.6358857 L79.1277372,62.4559571 C79.1277372,62.1456 79.0039708,62.0277429 78.7844234,62.0277429 C78.5668467,62.0277429 78.4430803,62.1456 78.4430803,62.4559571 C78.4430803,62.7726 78.5794599,63.0083143 79.0291971,63.3996 C79.6015182,63.9016714 79.7812555,64.2623143 79.7812555,64.7581 C79.7812555,65.4534571 79.4336058,65.8510286 78.7599854,65.8510286 C78.0875474,65.8510286 77.7398978,65.4534571 77.7398978,64.7581 L77.7398978,64.4917429 L78.3863212,64.4917429 L78.3863212,64.8021 C78.3863212,65.1124571 78.5234891,65.2240286 78.741854,65.2240286 C78.9598248,65.2240286 79.0969927,65.1124571 79.0969927,64.8021 C79.0969927,64.4854571 78.9598248,64.2497429 78.5108759,63.8584571 C77.9377664,63.3556 77.7580292,62.9957429 77.7580292,62.4991714 C77.7580292,61.8046 78.0993723,61.4070286 78.766292,61.4070286" id="Fill-37"></path>
                <polygon id="Fill-38" points="82.5616642 61.4563714 84.6790949 61.4563714 84.6790949 62.0770857 83.9625109 62.0770857 83.9625109 65.8013714 83.2782482 65.8013714 83.2782482 62.0770857 82.5616642 62.0770857"></polygon>
                <polygon id="Fill-39" points="87.5627737 65.8012143 88.2478248 65.8012143 88.2478248 61.4562143 87.5627737 61.4562143"></polygon>
                <polygon id="Fill-40" points="91.132292 61.4563714 93.2497226 61.4563714 93.2497226 62.0770857 92.5331387 62.0770857 92.5331387 65.8013714 91.8488759 65.8013714 91.8488759 62.0770857 91.132292 62.0770857"></polygon>
                <path d="M97.8472117,61.2024286 L96.4148321,61.2024286 L96.4148321,60.7184286 L97.8472117,60.7184286 L97.8472117,61.2024286 Z M96.787708,61.4562143 L96.787708,64.8080714 C96.787708,65.1184286 96.9248759,65.23 97.1424526,65.23 C97.3616058,65.23 97.4987737,65.1184286 97.4987737,64.8080714 L97.4987737,61.4562143 L98.1459854,61.4562143 L98.1459854,64.7648571 C98.1459854,65.4602143 97.7975474,65.857 97.1243212,65.857 C96.4526715,65.857 96.1026569,65.4602143 96.1026569,64.7648571 L96.1026569,61.4562143 L96.787708,61.4562143 Z" id="Fill-41"></path>
                <polygon id="Fill-42" points="101.000496 61.4563714 103.117927 61.4563714 103.117927 62.0770857 102.401343 62.0770857 102.401343 65.8013714 101.71708 65.8013714 101.71708 62.0770857 101.000496 62.0770857"></polygon>
                <path d="M106.92473,61.4070286 C107.590073,61.4070286 107.932993,61.8046 107.932993,62.4991714 L107.932993,62.6358857 L107.285781,62.6358857 L107.285781,62.4559571 C107.285781,62.1456 107.161226,62.0277429 106.942861,62.0277429 C106.725285,62.0277429 106.599942,62.1456 106.599942,62.4559571 C106.599942,62.7726 106.737109,63.0083143 107.185664,63.3996 C107.757985,63.9016714 107.940088,64.2623143 107.940088,64.7581 C107.940088,65.4534571 107.590073,65.8510286 106.918423,65.8510286 C106.245197,65.8510286 105.896759,65.4534571 105.896759,64.7581 L105.896759,64.4917429 L106.543971,64.4917429 L106.543971,64.8021 C106.543971,65.1124571 106.681139,65.2240286 106.900292,65.2240286 C107.117869,65.2240286 107.255036,65.1124571 107.255036,64.8021 C107.255036,64.4854571 107.117869,64.2497429 106.669314,63.8584571 C106.096204,63.3556 105.914891,62.9957429 105.914891,62.4991714 C105.914891,61.8046 106.25781,61.4070286 106.92473,61.4070286" id="Fill-43"></path>
                <polygon id="Fill-44" points="5.61328761e-13 48.6632143 107.939299 48.6632143 107.939299 45.6688571 5.61328761e-13 45.6688571"></polygon>
                <path d="M49.164438,38.6280714 L52.0157956,38.6280714 L52.0157956,20.5417143 L49.164438,20.5417143 L49.164438,38.6280714 Z M76.4387737,20.3350714 C73.6394453,20.3350714 72.188146,21.9882143 72.188146,24.8827857 L72.188146,34.287 C72.188146,37.1807857 73.6394453,38.8347143 76.4387737,38.8347143 C79.2388905,38.8347143 80.6901898,37.1807857 80.6901898,34.287 L80.6901898,31.8842857 L77.9941314,31.8842857 L77.9941314,34.4685 C77.9941314,35.7602143 77.4241752,36.2253571 76.5168175,36.2253571 C75.6094599,36.2253571 75.0387153,35.7602143 75.0387153,34.4685 L75.0387153,24.7012857 C75.0387153,23.4095714 75.6094599,22.9185 76.5168175,22.9185 C77.4241752,22.9185 77.9941314,23.4095714 77.9941314,24.7012857 L77.9941314,26.6396429 L80.6901898,26.6396429 L80.6901898,24.8827857 C80.6901898,21.9882143 79.2388905,20.3350714 76.4387737,20.3350714 L76.4387737,20.3350714 Z M90.9832993,28.6290714 C89.1165547,27.0010714 88.5465985,26.0189286 88.5465985,24.7012857 C88.5465985,23.4095714 89.0653139,22.9185 89.9718832,22.9185 C90.8792409,22.9185 91.3971679,23.4095714 91.3971679,24.7012857 L91.3971679,25.4508571 L94.0940146,25.4508571 L94.0940146,24.8827857 C94.0940146,21.9882143 92.6679416,20.3350714 89.8938394,20.3350714 C87.1205255,20.3350714 85.6952409,21.9882143 85.6952409,24.8827857 C85.6952409,26.9492143 86.4465109,28.4483571 88.8311825,30.5407143 C90.697927,32.1687143 91.2686715,33.1508571 91.2686715,34.4685 C91.2686715,35.7602143 90.697927,36.2253571 89.7905693,36.2253571 C88.8832117,36.2253571 88.3132555,35.7602143 88.3132555,34.4685 L88.3132555,33.176 L85.6171971,33.176 L85.6171971,34.287 C85.6171971,37.1807857 87.0684964,38.8347143 89.8678248,38.8347143 C92.6679416,38.8347143 94.1200292,37.1807857 94.1200292,34.287 C94.1200292,32.2205714 93.3679708,30.7214286 90.9832993,28.6290714 L90.9832993,28.6290714 Z M105.061927,26.7685 C105.061927,28.2157857 104.413927,28.6801429 103.350482,28.6801429 L102.235796,28.6801429 L102.235796,23.1251429 L103.609839,23.1251429 C104.621255,23.1251429 105.061927,23.694 105.061927,24.9857143 L105.061927,26.7685 Z M106.04654,29.8170714 L106.04654,29.766 C107.317314,29.1712143 107.913285,27.9832143 107.913285,26.1226429 L107.913285,24.7012857 C107.913285,21.9112143 106.643299,20.5417143 103.687095,20.5417143 L99.384438,20.5417143 L99.384438,38.6280714 L102.235796,38.6280714 L102.235796,31.2643571 L103.221197,31.2643571 C104.517197,31.2643571 105.087942,31.8842857 105.087942,33.5633571 L105.087942,38.6280714 L107.939299,38.6280714 L107.939299,33.6411429 C107.939299,31.7554286 107.471825,30.4118571 106.04654,29.8170714 L106.04654,29.8170714 Z M61.9454891,25.3259286 C61.0483796,25.3259286 60.305781,25.5137143 59.6885255,25.8397857 L59.444146,25.4390714 L57.694073,25.4390714 L57.694073,38.6280714 L60.3932847,38.6280714 L60.3932847,29.6505 C60.4066861,28.3925714 60.9719124,27.9101429 61.8682336,27.9101429 C62.7755912,27.9101429 63.3455474,28.4012143 63.3455474,29.6929286 L63.3455474,38.6280714 L66.1969051,38.6280714 L66.1969051,29.8736429 C66.1969051,26.9798571 64.7456058,25.3259286 61.9454891,25.3259286 L61.9454891,25.3259286 Z M29.6519124,7.00464286 L24.3772555,12.7906429 L26.5530219,14.9749286 L29.633781,11.5908571 L37.9253431,20.6642857 L37.9253431,35.4357143 L28.7453431,35.4357143 L28.7453431,19.4778571 L17.0056642,7.41321429 L5.99991241,19.4975 L5.98414599,38.511 L23.8419854,38.511 L23.8419854,35.4357143 L9.06963504,35.4357143 L9.06963504,20.6737143 L17.0876496,11.8996429 L25.659854,20.7585714 L25.659854,38.4952857 L26.7824234,38.4952857 L26.7824234,38.511 L41.0108321,38.511 L41.0108321,19.4975 L41.0029489,19.4975 L41.0147737,19.4778571 L29.6519124,7.00464286 Z M23.2759708,3.07528571 C24.1959416,3.07528571 24.945635,3.82171429 24.945635,4.73942857 C24.945635,5.65635714 24.1959416,6.40278571 23.2759708,6.40278571 C22.356,6.40278571 21.6070949,5.65635714 21.6070949,4.73942857 C21.6070949,3.82171429 22.356,3.07528571 23.2759708,3.07528571 L23.2759708,3.07528571 Z M23.2759708,9.47807143 C25.897927,9.47807143 28.0311241,7.35192857 28.0311241,4.73942857 C28.0311241,2.12614286 25.897927,1.88293825e-13 23.2759708,1.88293825e-13 C20.6540146,1.88293825e-13 18.5216058,2.12614286 18.5216058,4.73942857 C18.5216058,7.35192857 20.6540146,9.47807143 23.2759708,9.47807143 L23.2759708,9.47807143 Z" id="Fill-45"></path>
            </g>
        </g>
    </g>
</svg>