<svg width="178px" height="121px" viewBox="0 0 178 121" version="1.1" xmlns="http://www.w3.org/2000/svg" xmlns:xlink="http://www.w3.org/1999/xlink">
    <g id="Page-1" stroke="none" stroke-width="1" fill="none" fill-rule="evenodd">
        <g id="Group-35" transform="translate(20.000000, 25.000000)" fill="#191445">
            <g id="Group-34">
                <path d="M56.6589711,54.5530305 C56.6589711,57.0649062 54.6344393,59.1018441 52.1368786,59.1018441 C49.6389191,59.1018441 47.6139884,57.0649062 47.6139884,54.5530305 C47.6139884,52.0411548 49.6389191,50.0058215 52.1368786,50.0058215 C54.6344393,50.0058215 56.6589711,52.0411548 56.6589711,54.5530305" id="Fill-1"></path>
                <path d="M52.0674798,22.6566215 C49.5691214,22.6566215 47.5445896,20.6196836 47.5445896,18.1078079 C47.5445896,15.5959322 49.5691214,13.5605989 52.0674798,13.5605989 C54.5650405,13.5605989 56.5895723,15.5959322 56.5895723,18.1078079 C56.5895723,20.6196836 54.5650405,22.6566215 52.0674798,22.6566215 M40.7582601,11.3700282 C38.2606994,11.3700282 36.2357688,9.3330904 36.2357688,6.82201695 C36.2357688,4.30974011 38.2606994,2.27400565 40.7582601,2.27400565 C43.2562197,2.27400565 45.2799538,4.30974011 45.2799538,6.82201695 C45.2799538,9.3330904 43.2562197,11.3700282 40.7582601,11.3700282 M63.3759017,2.27400565 C65.8730636,2.27400565 67.8983931,4.30974011 67.8983931,6.82201695 C67.8983931,9.3330904 65.8730636,11.3700282 63.3759017,11.3700282 C60.8775434,11.3700282 58.8534104,9.3330904 58.8534104,6.82201695 C58.8534104,4.30974011 60.8775434,2.27400565 63.3759017,2.27400565 M58.8502197,18.1086102 C58.8502197,17.0656723 58.6109133,16.0825028 58.1957168,15.1988136 L59.8134277,12.6199492 C60.8496243,13.2653672 62.066896,13.644435 63.375104,13.644435 C67.1210462,13.644435 70.1626301,10.5898305 70.1626301,6.82201695 C70.1626301,3.05460452 67.1210462,-8.52651283e-14 63.375104,-8.52651283e-14 C59.628763,-8.52651283e-14 56.5919653,3.05460452 56.5919653,6.82201695 C56.5919653,6.92550847 56.6027341,7.02659322 56.6075202,7.12928249 L53.8451272,11.5308814 C53.2775723,11.3764463 52.6832948,11.2861921 52.0666821,11.2861921 C51.4504682,11.2861921 50.8561908,11.3756441 50.2890347,11.5308814 L47.5262428,7.12928249 C47.5306301,7.02659322 47.5413988,6.92550847 47.5413988,6.82201695 C47.5413988,3.05460452 44.5042023,-8.52651283e-14 40.7582601,-8.52651283e-14 C37.0119191,-8.52651283e-14 33.9747225,3.05460452 33.9747225,6.82201695 C33.9747225,10.5898305 37.0119191,13.644435 40.7582601,13.644435 C42.0664682,13.644435 43.2837399,13.2653672 44.3195376,12.6199492 L45.9384451,15.1988136 C45.5228497,16.0825028 45.2831445,17.0656723 45.2831445,18.1086102 C45.2831445,19.8077966 45.9057399,21.3593672 46.927578,22.5531299 L34.0002486,43.1522757 L40.6529653,43.1522757 L52.0670809,24.9647232 L63.4807977,43.1522757 L70.1375029,43.1522757 L57.2057861,22.5531299 C58.228422,21.3593672 58.8502197,19.8077966 58.8502197,18.1086102" id="Fill-2"></path>
                <path d="M92.8787861,29.4421356 L80.2948613,29.4421356 L80.2948613,24.9073616 L92.8787861,24.9073616 C94.1195896,24.9073616 95.1294624,25.924226 95.1294624,27.1749492 C95.1294624,28.4244689 94.1195896,29.4421356 92.8787861,29.4421356 M92.8787861,38.5348689 L80.2948613,38.5348689 L80.2948613,33.9984904 L92.8787861,33.9984904 C94.1195896,33.9984904 95.1294624,35.0169593 95.1294624,36.2676825 C95.1294624,37.5172023 94.1195896,38.5348689 92.8787861,38.5348689 M93.9656358,20.3501243 L74.6416474,20.3774011 L74.6416474,43.0864904 L93.9656358,43.0909028 C97.7000116,43.0909028 100.738006,40.0302814 100.738006,36.2676825 C100.738006,34.5195582 100.07752,32.929078 99.0026358,31.7204734 C100.07752,30.5123503 100.738006,28.9218701 100.738006,27.1749492 C100.738006,23.4119492 97.7000116,20.3501243 93.9656358,20.3501243" id="Fill-3"></path>
                <path d="M23.8794642,38.6069119 C21.9498572,36.4235616 7.79329075,20.404678 7.79329075,20.404678 L0.149047977,20.411096 L0.149047977,43.1448949 L5.80186301,43.1448949 L5.80186301,24.9972147 C7.18784566,26.5656328 20.3130017,41.4184316 21.8393775,43.1448949 L29.5322792,43.1448949 L29.5322792,20.411096 L23.8794642,20.411096 L23.8794642,38.6069119 Z" id="Fill-4"></path>
                <path d="M132.377497,54.6180537 C132.377497,54.6116356 132.293341,53.9794548 132.124231,52.720709 C132.011358,53.3621158 131.801965,54.0007147 131.494855,54.6353023 L127.899676,61.9936299 L124.304098,54.4848785 C124.009751,53.8743588 123.784405,53.2871045 123.627659,52.720709 C123.609312,53.3119746 123.525156,53.9513757 123.374792,54.6369068 L121.900665,61.4420763 L119.845023,61.4420763 L123.092809,47.0764096 L127.149052,55.7596695 C127.26711,56.0179972 127.517983,56.644161 127.899676,57.638161 C128.04326,57.2229915 128.306497,56.5972288 128.688191,55.7596695 L132.650306,47.0764096 L135.973474,61.4420763 L133.898289,61.4420763 L132.377497,54.6180537 Z" id="Fill-5"></path>
                <polygon id="Fill-6" points="104.096272 61.4419559 104.096272 47.6278429 111.763249 47.6278429 111.763249 49.5332102 106.339769 49.5332102 106.339769 52.9680859 111.763249 52.9680859 111.763249 54.9484644 106.339769 54.9484644 106.339769 61.4419559"></polygon>
                <path d="M114.108451,34.1090819 L119.854994,24.9530904 L125.601538,34.1090819 L114.108451,34.1090819 Z M131.269509,43.1405226 L137.921428,43.1405226 L123.648798,20.398661 L116.061191,20.398661 L101.788561,43.1405226 L108.441277,43.1405226 L111.255121,38.656291 L128.456064,38.656291 L131.269509,43.1405226 Z" id="Fill-7"></path>
                <path d="M33.5401422,47.7193006 L33.5401422,50.542052 L28.3236624,50.542052 L28.0520497,52.3274814 C28.7141306,52.1902949 29.2776971,52.1217017 29.7403561,52.1217017 C31.1343156,52.1217017 32.2351249,52.542487 33.0427838,53.3856621 C33.8488474,54.228035 34.2520786,55.3728599 34.2520786,56.8177299 C34.2520786,58.3452328 33.7615006,59.5546395 32.7787491,60.4455492 C31.7712694,61.3484927 30.384489,61.800165 28.6204023,61.800165 C26.9117549,61.800165 25.5042347,61.4307243 24.3954486,60.6934475 L24.6399399,57.3468203 L24.9318936,57.4037808 C25.6462231,58.4968599 26.7051538,59.0436 28.1082867,59.0436 C28.978963,59.0436 29.6538069,58.8306 30.1300266,58.4041989 C30.6058474,57.9777977 30.8439572,57.3885379 30.8439572,56.6368203 C30.8439572,55.9127808 30.5871017,55.3142949 30.0733908,54.8437695 C29.5596798,54.3728429 28.8916162,54.1373797 28.0711942,54.1373797 C26.9807549,54.1373797 26.080963,54.518052 25.3726162,55.2757864 L24.9135468,55.0030181 L26.0490555,47.7193006 L33.5401422,47.7193006 Z" id="Fill-8"></path>
                <path d="M75.5143179,52.9277322 C76.0136705,52.9277322 76.4101214,52.7845288 76.7028728,52.4973198 C76.9976185,52.210913 77.1431965,51.819009 77.1431965,51.3212068 C77.1431965,50.2646305 76.6003699,49.7359412 75.5143179,49.7359412 C75.0149653,49.7359412 74.6217052,49.8763367 74.3341387,50.1599356 C74.0465723,50.4435345 73.9025896,50.8318282 73.9025896,51.3212068 C73.9025896,51.819009 74.0489653,52.210913 74.3389249,52.4973198 C74.6292832,52.7845288 75.0213468,52.9277322 75.5143179,52.9277322 M75.4891908,59.0437605 C76.0782832,59.0437605 76.5401445,58.8800994 76.8759711,58.551574 C77.2102023,58.2230486 77.3777168,57.7721785 77.3777168,57.1977605 C77.3777168,56.6305627 77.2102023,56.1857096 76.8759711,55.8640034 C76.5401445,55.541896 76.0782832,55.3810429 75.4891908,55.3810429 C74.9012948,55.3810429 74.4394335,55.5426983 74.1052023,55.8680147 C73.7693757,56.1941333 73.6018613,56.6369808 73.6018613,57.1977605 C73.6018613,57.7657605 73.7733642,58.2154271 74.113578,58.5459582 C74.4565838,58.8780938 74.913659,59.0437605 75.4891908,59.0437605 M77.9197457,54.020009 C78.8163468,54.1840712 79.513526,54.5807887 80.009289,55.2089582 C80.5062486,55.8383311 80.7523353,56.6389864 80.7523353,57.6117266 C80.7523353,58.9049695 80.3012428,59.9226362 79.3982601,60.6615175 C78.4713468,61.4196531 77.1703179,61.7999243 75.4979653,61.7999243 C73.8240173,61.7999243 72.5269769,61.4196531 71.6060462,60.6615175 C70.7094451,59.9226362 70.2607457,58.9049695 70.2607457,57.6117266 C70.2607457,56.6389864 70.5092254,55.8383311 71.0045896,55.2089582 C71.4995549,54.5807887 72.1951387,54.1840712 73.0909422,54.020009 C71.5829133,53.6734328 70.8294971,52.7223537 70.8294971,51.1679751 C70.8294971,50.0063028 71.2359191,49.0909243 72.0523526,48.4210373 C72.8671908,47.7511503 74.0218439,47.417009 75.5143179,47.417009 C77.0075896,47.417009 78.1646358,47.7511503 78.9854566,48.4210373 C79.8082717,49.0909243 80.2178844,50.0063028 80.2178844,51.1679751 C80.2178844,52.7223537 79.4505087,53.6734328 77.9197457,54.020009" id="Fill-9"></path>
                <path d="M5.31260116,54.4401927 C5.94955491,54.4401927 6.45489017,54.2488537 6.82661272,53.8685825 C7.1987341,53.4887124 7.38419653,52.9700514 7.38419653,52.3101927 C7.38419653,51.6511362 7.1987341,51.1304695 6.82661272,50.7469893 C6.45489017,50.363509 5.94955491,50.1721701 5.31260116,50.1721701 C4.6820289,50.1721701 4.17868786,50.363509 3.8049711,50.7469893 C3.42886127,51.1304695 3.24100578,51.6511362 3.24100578,52.3101927 C3.24100578,52.9700514 3.42686705,53.4887124 3.7985896,53.8685825 C4.17031214,54.2488537 4.6756474,54.4401927 5.31260116,54.4401927 L5.31260116,54.4401927 Z M5.48809249,56.6287576 C4.98036416,56.7819893 4.49816185,56.8598085 4.04108671,56.8598085 C2.8944104,56.8598085 1.93997688,56.4542661 1.17579191,55.6455881 C0.392861272,54.8244751 2.50288679e-12,53.7723113 2.50288679e-12,52.4890966 C2.50288679e-12,50.9792435 0.467843931,49.7610119 1.39914451,48.8388141 C2.35756647,47.8905429 3.63984971,47.4168085 5.24798844,47.4168085 C6.86849133,47.4168085 8.1483815,47.8833226 9.0880578,48.816752 C10.0026069,49.7249102 10.4580867,50.9331136 10.4580867,52.4405599 C10.4580867,53.3555373 10.2367283,54.3266729 9.79201734,55.3547689 C9.43505202,56.1626446 8.83758382,57.2124017 8.00001156,58.5060458 L6.09553179,61.4306842 L2.27420809,61.4306842 L5.48809249,56.6287576 Z" id="Fill-10"></path>
                <path d="M87.8904451,66.4756554 L88.9238497,66.4756554 L88.9238497,70.3537797 L89.6014855,70.3537797 L89.6014855,66.4756554 L90.6316994,66.4756554 L90.6316994,65.8342486 L87.8904451,65.8342486 L87.8904451,66.4756554 Z M80.7575202,67.6650056 L80.3096185,67.4804859 C79.9833642,67.3457062 79.8206358,67.1680056 79.8206358,66.9473842 C79.8206358,66.7869322 79.8828555,66.6545593 80.0064971,66.5490621 C80.1309364,66.4415593 80.2872832,66.3878079 80.4755376,66.3878079 C80.6286936,66.3878079 80.7535318,66.4186949 80.8512486,66.4816723 C80.9437803,66.536226 81.041896,66.6529548 81.1447977,66.832661 L81.6948035,66.5049379 C81.4036474,65.9995141 80.9992197,65.7468023 80.4811214,65.7468023 C80.0970347,65.7468023 79.7759653,65.8619266 79.5179133,66.0921751 C79.2594624,66.3200169 79.1310347,66.6036158 79.1310347,66.9429718 C79.1310347,67.4459887 79.4385434,67.8282655 80.0535607,68.0894011 L80.487104,68.271113 C80.599578,68.3196497 80.696896,68.3709944 80.7778613,68.4243446 C80.8596243,68.478096 80.9258324,68.5358588 80.9772832,68.5968305 C81.0287341,68.6582034 81.0670231,68.7255932 81.0909538,68.799 C81.1152832,68.8720056 81.1272486,68.9526328 81.1272486,69.0404802 C81.1272486,69.2586949 81.0574509,69.4392034 80.9178555,69.5812034 C80.7778613,69.7236045 80.6027688,69.7946045 80.3909827,69.7946045 C80.1233584,69.7946045 79.9195491,69.6971299 79.7799538,69.5017797 C79.7021792,69.4006949 79.6479364,69.2173785 79.6172254,68.9518305 L78.9300173,69.1038588 C78.992237,69.5254463 79.148185,69.8527684 79.398659,70.0858249 C79.6531214,70.3188814 79.9745896,70.4356102 80.3650578,70.4356102 C80.7762659,70.4356102 81.1204682,70.299226 81.3980636,70.0260565 C81.6732659,69.7540904 81.8112659,69.410322 81.8112659,68.9947514 C81.8112659,68.6842768 81.726711,68.422339 81.558,68.2081356 C81.389289,67.9943333 81.1220636,67.8134237 80.7575202,67.6650056 L80.7575202,67.6650056 Z M58.5698324,65.8342486 L58.5698324,70.3537797 L59.2478671,70.3537797 L59.2482659,69.1917062 L59.2478671,65.8342486 L58.5698324,65.8342486 Z M74.313,67.9096949 L74.313,66.4756554 L74.5543006,66.4756554 C75.179289,66.4756554 75.4915838,66.7067062 75.4915838,67.169209 C75.4915838,67.663 75.1705145,67.9096949 74.5279769,67.9096949 L74.313,67.9096949 Z M75.8788613,67.9859096 C76.0611329,67.7552599 76.1520694,67.4804859 76.1520694,67.1607853 C76.1520694,66.7512316 76.0064913,66.4211017 75.7157341,66.1711977 C75.4516994,65.9469661 75.0229422,65.8342486 74.4290636,65.8342486 L73.6349653,65.8342486 L73.6349653,70.3537797 L74.313,70.3537797 L74.313,68.5041695 L74.4354451,68.5041695 L75.7181272,70.3537797 L76.5481214,70.3537797 L75.1565549,68.4275537 C75.4556879,68.3633729 75.6961908,68.2161582 75.8788613,67.9859096 L75.8788613,67.9859096 Z M63.7280809,68.9666723 L62.4856821,65.8342486 L61.7434335,65.8342486 L63.7137225,70.6935367 L65.7302775,65.8342486 L64.9884277,65.8342486 L63.7280809,68.9666723 Z M94.1662543,68.6152825 L94.8646301,67.0785537 L95.5310983,68.6152825 L94.1662543,68.6152825 Z M92.6530405,70.3537797 L93.3833237,70.3537797 L93.8838728,69.2562881 L95.807896,69.2562881 L96.2793295,70.3537797 L97.021578,70.3537797 L94.8765954,65.5506497 L92.6530405,70.3537797 Z M68.220659,70.3537797 L70.6998728,70.3537797 L70.6998728,69.7123729 L68.8990925,69.7123729 L68.8990925,68.2029209 L70.6480231,68.2029209 L70.6480231,67.5615141 L68.8990925,67.5615141 L68.8990925,66.4756554 L70.6998728,66.4756554 L70.6998728,65.8342486 L68.220659,65.8342486 L68.220659,70.3537797 Z M98.7924451,66.4756554 L99.8254509,66.4756554 L99.8254509,70.3537797 L100.503486,70.3537797 L100.503486,66.4756554 L101.533699,66.4756554 L101.533699,65.8342486 L98.7924451,65.8342486 L98.7924451,66.4756554 Z M134.969983,69.5575367 C134.804861,69.7236045 134.606237,69.8066384 134.373312,69.8066384 C134.134405,69.8066384 133.93259,69.7236045 133.767867,69.5575367 C133.602746,69.3922712 133.520584,69.190904 133.520584,68.9550395 C133.520584,68.718774 133.602746,68.5178079 133.767867,68.3517401 C133.93259,68.1860734 134.133607,68.1030395 134.370121,68.1030395 C134.60504,68.1030395 134.806058,68.1872768 134.972775,68.3549492 C135.137497,68.5206158 135.220058,68.7235876 135.220058,68.9634633 C135.220058,69.1917062 135.136699,69.3898644 134.969983,69.5575367 L134.969983,69.5575367 Z M135.48489,67.9185198 C135.21926,67.6373277 134.903775,67.4969322 134.539231,67.4969322 C134.515699,67.4969322 134.483792,67.499339 134.44311,67.5033503 C134.402428,67.5069605 134.352971,67.5125763 134.29474,67.5201977 L135.368428,66.0512599 L134.871069,65.6766045 L133.299624,67.8218475 C133.006474,68.2221751 132.860098,68.6008418 132.860098,68.9578475 C132.860098,69.3557684 133.010462,69.6999379 133.311191,69.9907571 C133.617503,70.2815763 133.974468,70.4271864 134.381688,70.4271864 C134.793295,70.4271864 135.145075,70.2795706 135.438624,69.9851412 C135.73337,69.6883051 135.880543,69.3333051 135.880543,68.9197401 C135.880543,68.5294407 135.748526,68.1957006 135.48489,67.9185198 L135.48489,67.9185198 Z M128.221942,67.9096949 L128.221942,66.4756554 L128.46404,66.4756554 C129.088231,66.4756554 129.400526,66.7067062 129.400526,67.169209 C129.400526,67.663 129.079457,67.9096949 128.437318,67.9096949 L128.221942,67.9096949 Z M129.787803,67.9859096 C129.970075,67.7552599 130.06141,67.4804859 130.06141,67.1607853 C130.06141,66.7512316 129.915832,66.4211017 129.625075,66.1711977 C129.36104,65.9469661 128.932283,65.8342486 128.338405,65.8342486 L127.544306,65.8342486 L127.544306,70.3537797 L128.221942,70.3537797 L128.221942,68.5041695 L128.344387,68.5041695 L129.627867,70.3537797 L130.457462,70.3537797 L129.065896,68.4275537 C129.36463,68.3633729 129.605532,68.2161582 129.787803,67.9859096 L129.787803,67.9859096 Z M104.069948,70.3537797 L106.549561,70.3537797 L106.549561,69.7123729 L104.748382,69.7123729 L104.748382,68.2029209 L106.497312,68.2029209 L106.497312,67.5615141 L104.748382,67.5615141 L104.748382,66.4756554 L106.549561,66.4756554 L106.549561,65.8342486 L104.069948,65.8342486 L104.069948,70.3537797 Z M123.642815,65.8342486 L122.964382,65.8342486 L122.964382,70.3537797 L124.963786,70.3537797 L124.963786,69.7123729 L123.642815,69.7123729 L123.642815,65.8342486 Z M114.955994,68.0930113 C114.486156,68.0930113 114.104861,68.4764915 114.104861,68.9494237 C114.104861,69.4223559 114.486156,69.8058362 114.955994,69.8058362 C115.426231,69.8058362 115.807526,69.4223559 115.807526,68.9494237 C115.807526,68.4764915 115.426231,68.0930113 114.955994,68.0930113 L114.955994,68.0930113 Z M84.6729711,70.3537797 L85.3510058,70.3537797 L85.3510058,65.8342486 L84.6729711,65.8342486 L84.6729711,70.3537797 Z M17.4613474,68.9666723 L16.2189486,65.8342486 L15.4767,65.8342486 L17.446989,70.6935367 L19.4635439,65.8342486 L18.7216942,65.8342486 L17.4613474,68.9666723 Z M21.9535266,65.8342486 L21.9535266,70.3537797 L22.6315613,70.3537797 L22.6315613,65.8342486 L21.9535266,65.8342486 Z M10.5593532,66.4756554 L11.5927578,66.4756554 L11.5927578,70.3537797 L12.2703936,70.3537797 L12.2703936,66.4756554 L13.3006075,66.4756554 L13.3006075,65.8342486 L10.5593532,65.8342486 L10.5593532,66.4756554 Z M5.93356127,68.6152825 L6.63233584,67.0785537 L7.29880405,68.6152825 L5.93356127,68.6152825 Z M4.4203474,70.3537797 L5.15063064,70.3537797 L5.65157861,69.2562881 L7.57480405,69.2562881 L8.04663642,70.3537797 L8.78848613,70.3537797 L6.64350347,65.5506497 L4.4203474,70.3537797 Z M93.8435896,65.2991412 L95.8832775,65.2991412 L95.8832775,64.7720565 L93.8435896,64.7720565 L93.8435896,65.2991412 Z M0.789671098,65.8342486 L0.111636416,65.8342486 L0.111636416,70.3537797 L2.11104104,70.3537797 L2.11104104,69.7123729 L0.789671098,69.7123729 L0.789671098,65.8342486 Z M26.442515,68.7568814 C26.442515,69.1407627 26.4018329,69.4095198 26.3200699,69.5635537 C26.2426942,69.7179887 26.1027,69.7946045 25.9012838,69.7946045 C25.7573012,69.7946045 25.6033474,69.7392486 25.438226,69.6277345 L25.1063879,70.2121808 C25.3528734,70.3614011 25.6177058,70.4356102 25.9012838,70.4356102 C26.2753994,70.4356102 26.5765266,70.3020339 26.8030699,70.0344802 C26.9195324,69.9001017 27.0020931,69.7352373 27.0503532,69.5402881 C27.0990121,69.3686045 27.1233416,69.1078701 27.1233416,68.7584859 L27.1233416,65.8342486 L26.442515,65.8342486 L26.442515,68.7568814 Z M30.8621046,68.6152825 L31.5604803,67.0785537 L32.2269486,68.6152825 L30.8621046,68.6152825 Z M29.3488908,70.3537797 L30.079174,70.3537797 L30.5797231,69.2562881 L32.5033474,69.2562881 L32.9747809,70.3537797 L33.7170295,70.3537797 L31.5720468,65.5506497 L29.3488908,70.3537797 Z M37.699885,67.6650056 L37.2519832,67.4804859 C36.9257289,67.3457062 36.7630006,67.1680056 36.7630006,66.9473842 C36.7630006,66.7869322 36.8248214,66.6545593 36.9492607,66.5490621 C37.0733012,66.4415593 37.2292491,66.3878079 37.4179023,66.3878079 C37.5710584,66.3878079 37.6958965,66.4186949 37.7932145,66.4816723 C37.8861451,66.536226 37.9842607,66.6529548 38.0871624,66.832661 L38.6371682,66.5049379 C38.3460121,65.9995141 37.9415844,65.7468023 37.4234861,65.7468023 C37.0393994,65.7468023 36.7183301,65.8619266 36.460278,66.0921751 C36.202226,66.3200169 36.0733994,66.6036158 36.0733994,66.9429718 C36.0733994,67.4459887 36.3809081,67.8282655 36.9959254,68.0894011 L37.4294688,68.271113 C37.5419428,68.3196497 37.6388618,68.3709944 37.720226,68.4243446 C37.801989,68.478096 37.868596,68.5358588 37.919648,68.5968305 C37.9710988,68.6582034 38.008989,68.7255932 38.0333185,68.799 C38.057648,68.8720056 38.0696133,68.9526328 38.0696133,69.0404802 C38.0696133,69.2586949 37.9998156,69.4392034 37.8602202,69.5812034 C37.720226,69.7236045 37.5447347,69.7946045 37.3333474,69.7946045 C37.0657231,69.7946045 36.8619139,69.6971299 36.7219197,69.5017797 C36.6445439,69.4006949 36.5903012,69.2173785 36.5591913,68.9518305 L35.8723821,69.1038588 C35.9346017,69.5254463 36.0905497,69.8527684 36.3410237,70.0858249 C36.5950873,70.3188814 36.9173532,70.4356102 37.3070237,70.4356102 C37.7186306,70.4356102 38.0628329,70.299226 38.3404283,70.0260565 C38.6156306,69.7540904 38.7536306,69.410322 38.7536306,68.9947514 C38.7536306,68.6842768 38.6690757,68.422339 38.5003647,68.2081356 C38.3316538,67.9943333 38.0648272,67.8134237 37.699885,67.6650056 L37.699885,67.6650056 Z M47.9210983,68.5547119 C47.9210983,68.9486215 47.8576821,69.2322203 47.7316474,69.4059096 C47.5433931,69.6650395 47.277763,69.7946045 46.9343584,69.7946045 C46.592948,69.7946045 46.3281156,69.6650395 46.1398613,69.4059096 C46.0138266,69.2262034 45.9508092,68.9426045 45.9508092,68.5547119 L45.9508092,65.8342486 L45.2727746,65.8342486 L45.2727746,68.7440452 C45.2727746,69.2201864 45.4203468,69.6120904 45.7150925,69.9205593 C46.0449364,70.2639266 46.4513584,70.4356102 46.9343584,70.4356102 C47.4173584,70.4356102 47.8249769,70.2639266 48.156815,69.9205593 C48.4515607,69.6120904 48.5991329,69.2201864 48.5991329,68.7440452 L48.5991329,65.8342486 L47.9210983,65.8342486 L47.9210983,68.5547119 Z M54.8841156,68.975096 L51.6072139,65.5273842 L51.6072139,70.3537797 L52.2852486,70.3537797 L52.2852486,67.1896667 L55.5621503,70.6289548 L55.5621503,65.8342486 L54.8841156,65.8342486 L54.8841156,68.975096 Z" id="Fill-11"></path>
            </g>
        </g>
    </g>
</svg>