<svg width="178px" height="121px" viewBox="0 0 178 121" version="1.1" xmlns="http://www.w3.org/2000/svg" xmlns:xlink="http://www.w3.org/1999/xlink">
    <g id="Page-1" stroke="none" stroke-width="1" fill="none" fill-rule="evenodd">
        <path d="M20,38 L20,79.153 C22.4039,77.4765 25.57,77.3874 28.0638,78.9263 C28.1851,79.0037 28.3065,79.0756 28.4223,79.1586 C29.4452,79.8745 30.2721,80.8368 30.8271,81.9571 C30.4223,80.59 29.6334,79.3688 28.5547,78.4396 C28.9727,76.8127 30.1288,75.4772 31.6765,74.8337 C32.2292,74.6057 32.8169,74.4747 33.4139,74.4465 L33.6952,74.4465 C35.3618,74.4465 36.9312,75.2333 37.9312,76.5703 C37.0248,76.9708 36.3241,77.7295 35.9952,78.6664 C36.5268,77.8833 37.3351,77.3318 38.2566,77.1233 L38.2952,77.1233 C38.5561,77.066 38.8223,77.0363 39.0894,77.0348 C40.3317,77.0382 41.4911,77.66 42.1837,78.694 C42.3271,78.5723 42.476,78.4507 42.6305,78.3401 C44.4544,76.9638 46.6538,76.1785 48.9348,76.0891 C49.6733,74.1368 50.1266,72.0878 50.2806,70.0055 C50.4437,72.1579 50.9271,74.2737 51.7146,76.2827 C53.3325,76.6198 54.8561,77.311 56.1767,78.3069 C54.4564,78.7432 53,79.8882 52.1669,81.4593 C54.2342,79.3117 57.1695,78.2333 60.1312,78.5332 C63.0929,78.833 65.7539,80.4781 67.3513,82.9968 L158,82.9968 L158,38 L20,38 Z M31.9082,74.0483 C32.2723,72.7214 32.5051,71.3617 32.6031,69.9889 C32.7016,71.2962 32.9175,72.5919 33.2484,73.8603 C32.7956,73.8663 32.3453,73.9295 31.9082,74.0483 Z M33.5132,65.8022 L33.2374,65.7027 C33.1784,66.3917 32.9532,67.0561 32.5811,67.6384 C32.2121,67.0546 31.9871,66.391 31.9247,65.7027 L31.671,65.8022 C31.4145,65.0872 31.4145,64.305 31.671,63.59 L33.4525,63.59 C33.7291,64.2978 33.7506,65.0803 33.5132,65.8022 Z M33.7393,62.9429 L31.4669,62.9429 L31.4669,58.6346 C31.4669,58.0054 31.9756,57.4953 32.6031,57.4953 C33.2306,57.4953 33.7393,58.0054 33.7393,58.6346 L33.7393,62.9429 Z M34.4508,58.1424 L34.4508,54.0387 C34.4538,53.7712 34.6694,53.555 34.9362,53.552 L47.953,53.552 C48.2198,53.555 48.4354,53.7712 48.4384,54.0387 L48.4384,58.5295 C48.4384,58.7983 48.2211,59.0162 47.953,59.0162 L34.9362,59.0162 C34.6681,59.0162 34.4508,58.7983 34.4508,58.5295 L34.4508,58.1424 Z M48.4384324,60.4929 L48.4384324,62.9429 L34.4508,62.9429 L34.4508,60.0892 C34.4508,59.8204 34.6681,59.6024677 34.9362,59.6024677 L47.953,59.6024677 C48.0822,59.601 48.2065,59.6518 48.2979,59.7434 C48.3892,59.835 48.4399,59.9596 48.4384324,60.0892 L48.4384324,60.4929 Z M51.1962,65.8022 L50.9424,65.7027 C50.88,66.391 50.655,67.0546 50.2861,67.6384 C49.9171,67.0546 49.6921,66.391 49.6297,65.7027 L49.376,65.8022 C49.1168,65.0877 49.1168,64.3045 49.376,63.59 L51.152,63.59 C51.4242,64.2996 51.4398,65.0823 51.1962,65.8022 Z M51.4388001,62.9429 L49.1499,62.9429 L49.1499,58.6346 C49.1499,58.3325 49.2696,58.0427 49.4827,57.829 C49.6957,57.6153 49.9847,57.4953 50.2861,57.4953 C50.5903,57.4909 50.8836,57.6089 51.1002,57.8231 C51.3169,58.0372 51.4389,58.3296 51.4388001,58.6346 L51.4388001,62.9429 Z M71.4053,67.0964 C70.8402,67.4489 70.1899,67.6401 69.5245,67.6495 C68.5825,67.6791 67.6715,67.3099 67.0146,66.6323 C66.3576,65.9547 66.0154,65.0311 66.0717,64.0878 L66.0717,59.5693 L64.8969,59.5693 L64.8969,57.3958 L66.0717,57.3958 L66.0717,53.5797 L68.8957,53.5797 L68.8957,57.3958 L71.3281,57.3958 L71.3281,59.5693 L68.8957,59.5693 L68.8957,63.9661 C68.8747,64.2966 68.9836,64.6222 69.199,64.8731 C69.3738,65.0831 69.6323,65.2046 69.905,65.2049 C70.4384,65.2016 70.9358,64.9347 71.2343,64.4915 L71.4053,64.8067 L72.2823,66.4659 C72.0126,66.7061 71.7187,66.9174 71.4053,67.0964 Z M83.3189,63.4407 L75.9887,63.4407 C76.0769,63.992 76.3882,64.4823 76.8492,64.7957 C77.3306,65.1429 77.9109,65.3252 78.5038,65.3156 C79.4182,65.3475 80.3028,64.9875 80.9362,64.3256 L82.5082,66.029 C81.444,67.078 80.0071,67.6591 78.5149,67.6439 C77.1079,67.6902 75.7404,67.1728 74.7146,66.206 C73.6972,65.2122 73.1531,63.8291 73.2199,62.4065 C73.154,60.9818 73.7097,59.5989 74.7422,58.618 C75.7142,57.6969 77.0066,57.1928 78.3439,57.2133 C79.6328,57.1759 80.8894,57.6215 81.8683,58.4632 C82.852,59.3311 83.3862,60.6021 83.3189,61.9142 L83.3189,63.4407 Z M90.1472,67.6439 C88.7354,67.6799 87.3648,67.1643 86.3249,66.206 C85.2789,65.2451 84.7062,63.8722 84.7585,62.4507 C84.7102,61.0233 85.2888,59.6465 86.3415,58.6844 C87.3552,57.7284 88.7007,57.2066 90.0921,57.2298 C90.8495,57.2345 91.5988,57.3866 92.2983,57.6778 C93.0354,57.9791 93.6993,58.4355 94.2453,59.0162 L92.8058,60.9243 C92.4839,60.5374 92.0783,60.2291 91.6199,60.0228 C91.1828,59.8177 90.707,59.7083 90.2245,59.702 C89.5231,59.6928 88.8447,59.9519 88.3271,60.4265 C87.7814,60.9464 87.4909,61.6805 87.5329,62.4341 C87.4897,63.1847 87.7805,63.9159 88.3271,64.4307 C88.8336,64.8969 89.4983,65.152 90.1859,65.1441 C91.2021,65.1028 92.1389,64.5818 92.712,63.7393 L94.3667,65.6142 C93.065,66.9637 91.6585,67.6384 90.1472,67.6384 L90.1472,67.6439 Z M105.635,67.749 L102.8331,67.749 L102.8331,61.9751 C102.8331,60.4191 102.265,59.643 101.1288,59.6467 C100.5779,59.6426 100.0487,59.862 99.6616,60.2551 C99.2141,60.7396 98.9865,61.3882 99.0329,62.047 L99.0329,67.7435 L96.2254,67.7435 L96.2254,53.5686 L99.0329,53.5686 L99.0329,58.5461 C99.763,57.7366 100.796,57.2678 101.8844,57.252 C102.8894,57.2297 103.8578,57.6309 104.554,58.3581 C105.308,59.1705 105.7054,60.2524 105.6571,61.3612 L105.635,67.749 Z M112.9873,67.6439 C111.5754,67.6799 110.2048,67.1643 109.165,66.206 C108.1189,65.2451 107.5463,63.8722 107.5986,62.4507 C107.5502,61.0233 108.1289,59.6465 109.1815,58.6844 C110.1952,57.7284 111.5408,57.2066 112.9321,57.2298 C113.6894,57.2357 114.4385,57.3878 115.1384,57.6778 C115.871,57.9813 116.5309,58.4376 117.0743,59.0162 L115.6127,60.9298 C115.2908,60.5429 114.8853,60.2346 114.4269,60.0283 C113.9897,59.8232 113.514,59.7139 113.0314,59.7075 C112.3301,59.6983 111.6516,59.9574 111.1341,60.4321 C110.5883,60.9519 110.2979,61.686 110.3398,62.4397 C110.2966,63.1903 110.5875,63.9215 111.1341,64.4362 C111.6423,64.9033 112.309,65.1584 112.9983,65.1496 C114.0126,65.1066 114.947,64.5858 115.5189,63.7449 L117.1736,65.6197 C115.894,66.9655 114.4986,67.6384 112.9873,67.6384 L112.9873,67.6439 Z M128.475,67.749 L125.673,67.749 L125.673,61.9751 C125.673,60.4191 125.105,59.643 123.969,59.6467 C123.418,59.6432 122.889,59.8626 122.502,60.2551 C122.054,60.7396 121.827,61.3882 121.873,62.047 L121.873,67.7435 L119.0655,67.7435 L119.0655,53.5686 L121.873,53.5686 L121.873,58.5461 C122.603,57.7366 123.636,57.2678 124.724,57.252 C125.73,57.2283 126.699,57.6298 127.394,58.3581 C128.148,59.1705 128.545,60.2524 128.497,61.3612 L128.475,67.749 Z M133.825,67.749 L131.023,67.749 L131.023,57.3958 L133.825,57.3958 L133.825,67.749 Z M133.571,55.4601 C133.109,55.9234 132.413,56.0613 131.809,55.8094 C131.205,55.5575 130.812,54.9655 130.813992,54.3097 C130.815,53.5765 131.308,52.9358 132.014,52.7473 C132.721,52.5587 133.466,52.8694 133.83,53.5048 C134.195,54.1403 134.089,54.9421 133.571,55.4601 Z M139.291,67.749 L136.484,67.749 L136.484,53.5686 L139.291,53.5686 L139.291,67.749 Z M144.752,67.749 L141.944,67.749 L141.944,53.5686 L144.752,53.5686 L144.752,67.749 Z M78.3935,59.5693 C78.905,59.5596 79.4034,59.732 79.8,60.056 C80.1983,60.4114 80.4402,60.9105 80.4729,61.4441 L76.0604,61.4441 C76.1211,60.8941 76.4144,60.3966 76.8657,60.0781 C77.3066,59.747 77.8427,59.5685 78.3935,59.5693 Z M41.4446,56.7542 C41.3247,56.7542 41.2096,56.7064 41.1248,56.6214 C41.04,56.5363 40.9923,56.421 40.9923,56.3007 C40.9923,56.0502 41.1948,55.8472 41.4446,55.8472 C41.6944,55.8472 41.8969,56.0502 41.8969,56.3007 C41.8969,56.5512 41.6944,56.7542 41.4446,56.7542 Z M50.3357,58.1866 L50.3192,58.1866 C50.5659,58.1866 50.7659,58.3872 50.7659,58.6346 C50.7659,58.882 50.5659,59.0826 50.3192,59.0826 L50.2861,59.0826 C50.0437,59.0766 49.8503,58.8778 49.8504,58.6346 C49.8526,58.3987 50.0349,58.2039 50.2695,58.1866 L50.3357,58.1866 Z M32.6417,58.1866 L32.6031,58.1866 C32.8499,58.1866 33.0499,58.3872 33.0499,58.6346 C33.0499,58.882 32.8499,59.0826 32.6031,59.0826 L32.57,59.0826 C32.3233,59.0826 32.1233,58.882 32.1233,58.6346 C32.1233,58.3872 32.3233,58.1866 32.57,58.1866 L32.6417,58.1866 Z M46.1053,56.7542 C45.8555,56.7542 45.653,56.5512 45.653,56.3007 C45.653,56.0502 45.8555,55.8472 46.1053,55.8472 C46.3551,55.8472 46.5576,56.0502 46.5576,56.3007 C46.5576,56.5512 46.3551,56.7542 46.1053,56.7542 Z M36.7839,56.7542 C36.5341,56.7542 36.3317,56.5512 36.3317,56.3007 C36.3317,56.0502 36.5341,55.8472 36.7839,55.8472 C37.0337,55.8472 37.2362,56.0502 37.2362,56.3007 C37.2362,56.5512 37.0337,56.7542 36.7839,56.7542 Z" id="Fill-1" fill="#191445"></path>
    </g>
</svg>