<svg width="178px" height="121px" viewBox="0 0 178 121" version="1.1" xmlns="http://www.w3.org/2000/svg" xmlns:xlink="http://www.w3.org/1999/xlink">
    <g id="Page-1" stroke="none" stroke-width="1" fill="none" fill-rule="evenodd">
        <g id="incsr" transform="translate(177.000000, 0.000000)">
            <rect id="Rectangle" x="0" y="0" width="178" height="121"></rect>
        </g>
        <g id="rtu">
            <rect id="Rectangle" x="0" y="0" width="178" height="121"></rect>
            <g id="Group-12" transform="translate(45.000000, 24.000000)" fill="#191445">
                <g id="Group-11">
                    <polygon id="Fill-1" points="44.384656 60.2068269 44.383944 60.2068269 44.383944 60.2075385"></polygon>
                    <polyline id="Fill-2" points="58.692296 67.0112692 60.809072 67.0112692 60.809072 73.4848462 62.272232 73.4848462 62.272232 67.0112692 64.410368 67.0112692 64.410368 65.59175 58.692296 65.59175 58.692296 67.0112692"></polyline>
                    <polyline id="Fill-3" points="71.244144 67.0112692 73.36092 67.0112692 73.36092 73.4848462 74.82408 73.4848462 74.82408 67.0112692 76.962216 67.0112692 76.962216 65.59175 71.244144 65.59175 71.244144 67.0112692"></polyline>
                    <polyline id="Fill-4" points="39.311656 67.0112692 39.311656 65.59175 34.09412 65.59175 34.09412 73.4848462 39.311656 73.4848462 39.311656 72.0624808 35.557992 72.0624808 35.557992 70.2480577 38.776232 70.2480577 38.776232 68.8278269 35.557992 68.8278269 35.557992 67.0112692 39.311656 67.0112692"></polyline>
                    <polyline id="Fill-5" points="83.435008 67.0112692 83.435008 65.59175 78.217472 65.59175 78.217472 73.4848462 83.435008 73.4848462 83.435008 72.0624808 79.681344 72.0624808 79.681344 70.2480577 82.900296 70.2480577 82.900296 68.8278269 79.681344 68.8278269 79.681344 67.0112692 83.435008 67.0112692"></polyline>
                    <polyline id="Fill-6" points="20.54476 65.59175 19.080888 65.59175 19.080888 71.3587692 15.790024 65.59175 14.144592 65.59175 14.144592 73.4848462 15.608464 73.4848462 15.608464 67.73775 18.920688 73.4848462 20.54476 73.4848462 20.54476 65.59175"></polyline>
                    <path d="M66.460928,70.8443269 L67.773856,66.9899231 L69.057592,70.8443269 L66.460928,70.8443269 Z M68.740752,65.6187885 L66.812656,65.6187885 L64.134824,73.4841346 L65.561672,73.4841346 L66.000976,72.1955385 L69.506152,72.1955385 L69.936912,73.4841346 L71.361624,73.4841346 L68.740752,65.6187885 L68.740752,65.6187885 Z" id="Fill-7"></path>
                    <polygon id="Fill-8" points="66.139104 64.3344615 69.35592 64.3344615 69.35592 63.0501346 66.139104 63.0501346"></polygon>
                    <path d="M54.388968,71.2171731 C54.388968,69.7955192 53.515344,69.2248654 52.564824,69.0014423 L51.198496,68.6648846 C50.571936,68.4976731 50.033664,68.2400962 50.033664,67.6808269 C50.033664,66.9643077 50.660936,66.674 51.31028,66.674 C52.049336,66.674 52.62036,66.9038269 52.9728,67.5086346 L53.950376,66.5331154 C53.398576,65.7326346 52.547024,65.4209808 51.434168,65.4209808 C49.888416,65.4209808 48.579048,66.2940385 48.579048,67.79325 C48.579048,69.2028077 49.429176,69.6838077 50.492904,69.9520577 L51.836448,70.2765192 C52.452328,70.4558269 52.93364,70.7240769 52.93364,71.3182115 C52.93364,72.0553654 52.173224,72.3691538 51.36724,72.3691538 C50.592584,72.3691538 49.944664,72.0404231 49.587952,71.4541154 L48.531344,72.5093269 C49.147224,73.2891731 50.196,73.6549038 51.32096,73.6549038 C53.0796,73.6549038 54.388968,72.6822308 54.388968,71.2171731" id="Fill-9"></path>
                    <path d="M42.703624,69.0484038 L42.703624,66.9386923 L44.0906,66.9386923 C45.016912,66.9386923 45.486832,67.2887692 45.486832,67.9796731 C45.486832,68.6890769 45.016912,69.0484038 44.0906,69.0484038 L42.703624,69.0484038 Z M46.993424,67.9796731 C46.993424,66.4491538 45.973128,65.6052692 44.119792,65.6052692 L41.243312,65.6052692 L41.243312,73.4976538 L42.703624,73.4976538 L42.703624,70.3014231 L43.280344,70.3014231 L43.302416,70.3284615 L45.623536,73.4976538 L47.3836,73.4976538 L44.88092,70.2402308 C46.210224,70.0182308 46.993424,69.1892885 46.993424,67.9796731 L46.993424,67.9796731 Z" id="Fill-10"></path>
                    <path d="M12.159536,70.3355769 C12.159536,72.5249808 10.761168,73.63925 8.745496,73.63925 C6.730536,73.63925 5.33288,72.5249808 5.33288,70.3355769 L5.33288,65.5782308 L6.91708,65.5782308 L6.91708,70.2565962 C6.91708,71.558 7.653288,72.1286538 8.745496,72.1286538 C9.838416,72.1286538 10.573912,71.558 10.573912,70.2565962 L10.573912,65.5782308 L12.159536,65.5782308 L12.159536,70.3355769" id="Fill-11"></path>
                    <polygon id="Fill-12" points="22.529816 73.4976538 24.109744 73.4976538 24.109744 65.5782308 22.529816 65.5782308"></polygon>
                    <polyline id="Fill-13" points="29.911832 73.4983654 27.99228 73.4983654 25.015408 65.5782308 26.69644 65.5782308 28.966296 71.8974038 31.247544 65.5782308 32.889416 65.5782308 29.911832 73.4983654"></polyline>
                    <polygon id="Fill-14" points="55.872776 73.4976538 57.452704 73.4976538 57.452704 65.5782308 55.872776 65.5782308"></polygon>
                    <polyline id="Fill-15" points="35.389248 53.7346731 37.506736 53.7346731 37.506736 60.2075385 38.969896 60.2075385 38.969896 53.7346731 41.108032 53.7346731 41.108032 52.3144423 35.389248 52.3144423 35.389248 53.7346731"></polyline>
                    <polyline id="Fill-16" points="47.837856 53.7346731 47.837856 52.3144423 42.62032 52.3144423 42.62032 60.2075385 47.837856 60.2075385 47.837856 58.7858846 44.084192 58.7858846 44.084192 56.9714615 47.302432 56.9714615 47.302432 55.5505192 44.084192 55.5505192 44.084192 53.7346731 47.837856 53.7346731"></polyline>
                    <polyline id="Fill-17" points="55.560208 60.1840577 55.560208 52.2909615 54.095624 52.2909615 54.095624 55.4523269 50.905152 55.4523269 50.905152 52.2909615 49.441992 52.2909615 49.441992 60.1840577 50.905152 60.1840577 50.905152 56.8732692 54.095624 56.8732692 54.095624 60.1840577 55.560208 60.1840577"></polyline>
                    <polyline id="Fill-18" points="63.842904 52.2916731 62.379744 52.2916731 62.379744 58.0586923 59.08888 52.2916731 57.442736 52.2916731 57.442736 60.1840577 58.90732 60.1840577 58.90732 54.4376731 62.218832 60.1840577 63.842904 60.1840577 63.842904 52.2916731"></polyline>
                    <polygon id="Fill-19" points="65.714752 60.1840577 67.178624 60.1840577 67.178624 52.2916731 65.714752 52.2916731"></polygon>
                    <polyline id="Fill-20" points="79.564576 52.3379231 77.106752 55.7547308 77.106752 52.3379231 75.642168 52.3379231 75.642168 60.2295962 77.106752 60.2295962 77.106752 56.7700962 79.564576 60.2295962 81.316808 60.2295962 78.334952 56.2143846 81.316808 52.3379231 79.564576 52.3379231"></polyline>
                    <path d="M83.867192,57.5897885 L85.18012,53.7353846 L86.463144,57.5897885 L83.867192,57.5897885 Z M86.147016,52.36425 L84.219632,52.36425 L81.540376,60.2295962 L82.968648,60.2295962 L83.40724,58.941 L86.913128,58.941 L87.342464,60.2295962 L88.767888,60.2295962 L86.147016,52.36425 L86.147016,52.36425 Z" id="Fill-21"></path>
                    <path d="M21.402008,57.5670192 L22.713512,53.7126154 L23.99796,57.5670192 L21.402008,57.5670192 Z M21.753736,52.3414808 L19.075192,60.2075385 L20.50204,60.2075385 L20.942056,58.9160962 L24.448656,58.9160962 L24.877992,60.2075385 L26.301992,60.2075385 L23.682544,52.3414808 L21.753736,52.3414808 L21.753736,52.3414808 Z" id="Fill-22"></path>
                    <polygon id="Fill-23" points="7.478136 60.2075385 8.94272 60.2075385 8.94272 52.3144423 7.478136 52.3144423"></polygon>
                    <polygon id="Fill-24" points="6.595968 51.0927308 9.813496 51.0927308 9.813496 49.8091154 6.595968 49.8091154"></polygon>
                    <path d="M18.485656,56.3360577 L18.485656,55.6608077 L14.488488,55.6608077 L14.488488,57.0113077 L17.044568,57.0113077 C16.922816,57.4695385 16.68572,57.8800962 16.359624,58.2059808 C15.878312,58.6869808 15.221136,58.9815577 14.488488,58.9815577 C13.755128,58.9815577 13.097952,58.6869808 12.618064,58.2059808 C12.137464,57.7256923 11.842696,57.0689423 11.842696,56.3360577 C11.842696,55.6038846 12.137464,54.9478462 12.618064,54.4668462 C13.097952,53.9865577 13.755128,53.6926923 14.488488,53.6919808 C15.266704,53.6926923 15.95948,54.0264038 16.445064,54.5593462 L17.399144,53.6051731 C16.672192,52.8303077 15.636232,52.3414808 14.488488,52.3414808 C12.280576,52.3421923 10.49132,54.1295769 10.490608,56.3360577 C10.49132,58.5425385 12.280576,60.3306346 14.488488,60.3306346 C16.6964,60.3306346 18.485656,58.5425385 18.485656,56.3360577" id="Fill-25"></path>
                    <path d="M32.768376,57.9612115 C32.768376,56.5395577 31.895464,55.9681923 30.944232,55.7447692 L29.577904,55.4089231 C28.951344,55.241 28.413784,54.9841346 28.413784,54.4241538 C28.413784,53.7083462 29.040344,53.4173269 29.6904,53.4173269 C30.428744,53.4173269 30.999768,53.6471538 31.35292,54.2526731 L32.329784,53.2764423 C31.778696,52.4766731 30.926432,52.1643077 29.813576,52.1643077 C28.268536,52.1643077 26.958456,53.0373654 26.958456,54.5365769 C26.958456,55.9468462 27.809296,56.4271346 28.873024,56.6953846 L30.216568,57.0198462 C30.832448,57.1998654 31.313048,57.4681154 31.313048,58.0615385 C31.313048,58.7994038 30.552632,59.1124808 29.746648,59.1124808 C28.971992,59.1124808 28.324072,58.7844615 27.96736,58.1974423 L26.911464,59.2533654 C27.526632,60.0332115 28.57612,60.3989423 29.70108,60.3989423 C31.459008,60.3989423 32.768376,59.4255577 32.768376,57.9612115" id="Fill-26"></path>
                    <path d="M72.582704,55.7212885 L71.215664,55.3861538 C70.589104,55.2182308 70.050832,54.9613654 70.050832,54.4020962 C70.050832,53.6855769 70.678816,53.3945577 71.32816,53.3945577 C72.065792,53.3945577 72.638952,53.6236731 72.989968,54.2299038 L73.968256,53.2536731 C73.416456,52.4539038 72.564904,52.1415385 71.450624,52.1415385 C69.906296,52.1415385 68.596928,53.0138846 68.596928,54.5138077 C68.596928,55.9240769 69.447056,56.4043654 70.511496,56.6733269 L71.854328,56.9977885 C72.470208,57.1763846 72.95152,57.4460577 72.95152,58.0373462 C72.95152,58.7752115 72.190392,59.0897115 71.384408,59.0897115 C70.60904,59.0897115 69.961832,58.7616923 69.60512,58.1739615 L68.549936,59.2298846 C69.165816,60.0104423 70.214592,60.3768846 71.33884,60.3768846 C73.096768,60.3768846 74.406136,59.4020769 74.406136,57.9370192 C74.406136,56.5160769 73.534648,55.9461346 72.582704,55.7212885" id="Fill-27"></path>
                    <path d="M1.460312,55.7582885 L1.460312,53.6485769 L2.846576,53.6485769 C3.7736,53.6485769 4.24352,53.9986538 4.24352,54.6895577 C4.24352,55.3989615 3.7736,55.7582885 2.846576,55.7582885 L1.460312,55.7582885 Z M5.750112,54.6895577 C5.750112,53.1590385 4.729104,52.3158654 2.875768,52.3158654 L1.71684889e-12,52.3158654 L1.71684889e-12,60.2075385 L1.460312,60.2075385 L1.460312,57.0113077 L2.037744,57.0113077 L2.059104,57.0383462 L4.380224,60.2075385 L6.140288,60.2075385 L3.637608,56.9501154 C4.9662,56.7288269 5.750112,55.8991731 5.750112,54.6895577 L5.750112,54.6895577 Z" id="Fill-28"></path>
                    <polygon id="Fill-29" points="83.52828 51.0920192 86.744384 51.0920192 86.744384 49.8084038 83.52828 49.8084038"></polygon>
                    <polyline id="Fill-30" points="36.796872 6.25584615 37.902608 6.25584615 37.902608 0.116692308 36.02364 0.116692308 36.02364 1.16265385 36.796872 1.16265385 36.796872 6.25584615"></polyline>
                    <path d="M41.112304,3.43957692 C41.627792,3.43957692 42.051432,3.85511538 42.051432,4.403 C42.051432,4.91815385 41.627792,5.32515385 41.112304,5.32515385 C40.596816,5.32515385 40.173176,4.91815385 40.173176,4.403 C40.173176,3.85511538 40.596816,3.43957692 41.112304,3.43957692 M41.12868,1.08011538 C41.478272,1.08011538 41.768768,1.36259615 41.768768,1.71125 C41.768768,2.06844231 41.478272,2.35946154 41.12868,2.35946154 C40.771968,2.35946154 40.48076,2.06844231 40.472216,1.71125 C40.48076,1.36259615 40.771968,1.08011538 41.12868,1.08011538 M39.06744,4.35319231 C39.06744,5.51655769 39.956728,6.40526923 41.120136,6.40526923 C42.209496,6.40526923 43.15788,5.51655769 43.15788,4.41936538 C43.15788,3.72205769 42.874504,3.14855769 42.268592,2.84117308 C42.625304,2.51742308 42.76628,2.16876923 42.76628,1.68634615 C42.76628,0.756365385 42.0436,2.06057393e-13 41.10376,2.06057393e-13 C40.139712,2.06057393e-13 39.474704,0.772730769 39.474704,1.71125 C39.474704,2.22569231 39.61568,2.48398077 39.973104,2.84117308 C39.408488,3.06530769 39.06744,3.72988462 39.06744,4.35319231" id="Fill-31"></path>
                    <path d="M45.974552,3.19836538 C46.556256,3.19836538 47.004816,3.69715385 47.004816,4.28630769 C47.004816,4.85198077 46.556256,5.32515385 45.983096,5.32515385 C45.376472,5.32515385 44.960664,4.82636538 44.960664,4.2365 C44.960664,3.64734615 45.409224,3.19836538 45.974552,3.19836538 M45.990928,6.40455769 C47.196344,6.40455769 48.110552,5.40840385 48.110552,4.22013462 C48.110552,3.63809615 47.944656,3.15709615 47.570856,2.75792308 C47.238352,2.40855769 46.780536,2.17659615 46.299224,2.17659615 L45.990928,2.2015 L47.362952,0.116692308 L46.057856,0.116692308 L44.303488,2.79136538 C44.029368,3.20619231 43.854216,3.68078846 43.854216,4.21159615 C43.854216,5.42476923 44.75276,6.40455769 45.990928,6.40455769" id="Fill-32"></path>
                    <path d="M50.757768,1.08011538 C51.272544,1.08011538 51.639224,1.46221154 51.639224,1.97736538 C51.639224,2.52596154 51.264712,2.89098077 50.890912,3.23963462 L48.770576,5.20917308 L48.770576,6.25584615 L52.743536,6.25584615 L52.743536,5.20917308 L50.31704,5.20917308 L51.488992,4.1625 L52.262936,3.34778846 C52.561976,2.95715385 52.743536,2.52596154 52.743536,2.02717308 C52.743536,0.863807692 51.846416,-2.7000624e-13 50.69084,-2.7000624e-13 C49.59436,-2.7000624e-13 48.705072,0.913615385 48.705072,2.01080769 L48.705072,2.23494231 L49.810096,2.23494231 C49.7688,1.62871154 50.101304,1.08011538 50.757768,1.08011538" id="Fill-33"></path>
                    <path d="M44.383944,27.4653846 L41.988064,25.0710577 L42.920072,21.0053269 L45.848528,21.0053269 L46.779824,25.0710577 L44.383944,27.4653846 Z M43.76308,17.3280962 C43.961728,17.3850192 44.167496,17.4248654 44.383944,17.4248654 C44.601104,17.4248654 44.806872,17.3850192 45.004808,17.3280962 L45.561592,19.7558654 L43.206296,19.7558654 L43.76308,17.3280962 Z M44.383944,14.3296731 C44.918656,14.3296731 45.352264,14.7516154 45.352264,15.2724615 C45.352264,15.7925962 44.918656,16.2145385 44.383944,16.2145385 C43.849232,16.2145385 43.415624,15.7925962 43.415624,15.2724615 C43.415624,14.7516154 43.849232,14.3296731 44.383944,14.3296731 L44.383944,14.3296731 Z M40.944272,24.0279423 L37.919696,21.0053269 L41.637048,21.0053269 L40.944272,24.0279423 Z M50.848192,21.0053269 L47.822904,24.0279423 L47.13084,21.0053269 L50.848192,21.0053269 Z M48.915112,34.3843846 L49.639216,31.9502115 L48.153272,25.46525 L53.867072,19.7558654 L46.843904,19.7558654 L46.119088,16.5923654 C46.413144,16.2266346 46.595416,15.7726731 46.595416,15.2724615 C46.595416,14.0834808 45.605024,13.1200577 44.383944,13.1200577 C43.162864,13.1200577 42.173184,14.0834808 42.173184,15.2724615 C42.173184,15.7726731 42.355456,16.2266346 42.6488,16.5916538 L41.923984,19.7558654 L34.900816,19.7558654 L40.614616,25.4659615 L39.128672,31.9502115 L39.853488,34.3843846 L41.658408,26.5090769 L44.383944,29.2328462 L47.10948,26.5083654 L48.915112,34.3843846 L48.915112,34.3843846 Z" id="Fill-34"></path>
                    <path d="M11.398408,42.0647308 L6.522632,42.0647308 L6.522632,35.6430962 L12.689976,35.6430962 L12.689976,31.1483077 L16.772584,23.2004231 C17.200496,23.5533462 17.695336,23.8301346 18.236456,24.0044615 C18.236456,24.0044615 18.790392,24.1460577 19.269568,24.2606154 C19.963768,24.4264038 20.9684,24.6576538 22.118992,24.9223462 L16.344672,28.5938846 L16.344672,37.2732308 L11.720944,37.2746538 L8.245672,39.4854038 L8.245672,40.7747115 L11.398408,40.7747115 L11.398408,42.0647308 Z M17.336488,17.4832115 C17.898256,16.9225192 18.660096,16.5738654 19.509512,16.5468269 C19.664016,16.5475385 20.21724,16.5475385 20.241448,16.5475385 C20.285592,16.5475385 20.328312,16.5432692 20.369608,16.5340192 C22.222944,16.3426154 23.66688,14.7786538 23.667592,12.876 C23.66688,12.4505 23.590696,12.0435 23.456128,11.6649615 C24.151752,12.0591538 24.76336,12.5842692 25.25464,13.2097115 C26.072016,14.2499808 26.5576,15.5563654 26.558312,16.9822885 C26.5576,18.6721923 25.874792,20.1970192 24.766208,21.3055962 C23.656912,22.4134615 22.131808,23.0965385 20.440808,23.0965385 C20.154584,23.0965385 19.298048,23.0353462 18.59744,22.8069423 C17.96376,22.5963269 17.413384,22.1935962 17.023208,21.6649231 C16.628048,21.1298462 16.394512,20.4730962 16.394512,19.7558654 C16.394512,18.8664423 16.75336,18.0666731 17.336488,17.4832115 L17.336488,17.4832115 Z M16.402344,14.9714808 L16.400208,14.6925577 L17.318688,14.6946923 C17.393448,14.6954038 17.384904,14.6946923 17.532288,14.6833077 C17.865504,14.6249615 18.175936,14.4855 18.408048,14.2499808 C18.690712,13.9682115 18.835248,13.5725962 18.8324,13.1833846 C18.8324,12.7351154 18.64016,12.3338077 18.35536,12.0555962 C18.082664,11.7894808 17.717408,11.6229808 17.31584,11.6066154 L17.31584,11.6002115 L14.353208,11.5987885 L14.352496,11.5987885 C14.094752,11.5980769 13.886136,11.3895962 13.885424,11.1313077 L13.885424,11.1284615 L13.88044,10.4517885 L20.143192,10.4517885 C20.753376,10.4902115 21.300192,10.7499231 21.707456,11.1555 C22.148896,11.5980769 22.420168,12.2028846 22.42088,12.876 C22.420168,13.5498269 22.148896,14.1539231 21.707456,14.5965 C21.298768,15.0035 20.75124,15.2632115 20.13892,15.3016346 C20.037104,15.3009231 16.729864,15.2952308 16.72844,15.2952308 L16.727728,15.2952308 C16.548304,15.2952308 16.403056,15.1500769 16.402344,14.9714808 L16.402344,14.9714808 Z M21.043872,7.12107692 C21.164912,7.00082692 21.305176,6.90405769 21.460392,6.83219231 C21.460392,6.83219231 21.461816,8.79817308 21.460392,9.48551923 C21.308736,9.41294231 21.163488,9.31901923 21.043872,9.20019231 C20.777584,8.93194231 20.613824,8.56834615 20.613112,8.15992308 C20.613824,7.75292308 20.777584,7.38861538 21.043872,7.12107692 L21.043872,7.12107692 Z M27.930336,12.3914423 C29.13148,13.5925192 29.871248,15.2447115 29.872672,17.0762115 C29.871248,18.9077115 29.13148,20.5606154 27.930336,21.7616923 C27.802888,21.8890577 27.360736,22.2469615 27.360736,22.2469615 L25.907544,21.9217885 L25.8812,21.9431346 C27.07736,20.6346154 27.808584,18.8941923 27.808584,16.9822885 C27.808584,15.2703269 27.221184,13.6885769 26.2372,12.4376923 C25.60708,11.6350769 24.811064,10.9690769 23.902552,10.4845192 C25.470376,10.6389231 26.875152,11.3369423 27.930336,12.3914423 L27.930336,12.3914423 Z M32.71996,20.9612115 L32.71996,23.4466154 L28.874448,22.5820962 C29.347928,22.09825 29.758752,21.5539231 30.095528,20.9612115 L32.71996,20.9612115 Z M32.71996,26.0344808 L23.035336,23.8521923 L23.478912,23.6899615 C23.932456,23.4850385 24.36108,23.2338654 24.7598,22.9442692 L32.71996,24.7280962 L32.71996,26.0344808 Z M24.476424,29.3225 L28.562592,33.4060192 L28.546216,33.4515577 L27.226168,37.1707692 L28.071312,40.7754231 L31.282432,40.7754231 L31.282432,42.0647308 L26.95988,42.0647308 L25.21192,40.3171923 L23.43904,40.3157692 L23.43904,34.1275192 L17.635528,31.5837692 L17.635528,29.3232115 L24.476424,29.3225 Z M9.41264,20.9270577 C9.41264,21.3781731 9.23108,21.7809038 8.9356,22.0776154 C8.785368,22.2270385 8.60452,22.3444423 8.406584,22.4262692 C8.534744,22.2028462 8.620184,21.9353077 8.595976,21.6606538 C8.541864,21.0558462 8.28768,20.7470385 7.709536,20.239 C7.355672,19.9437115 7.132816,19.5068269 7.132104,19.0108846 C7.132816,18.5683077 7.309392,18.1741154 7.599888,17.8830962 C7.69316,17.7905962 7.79996,17.7144615 7.912456,17.6468654 C7.8854,17.7735192 7.869736,17.9051538 7.869736,18.0396346 C7.869736,18.6821538 8.196544,19.2513846 8.690672,19.5843846 L8.72912,19.6050192 C9.143504,19.9017308 9.41264,20.3798846 9.41264,20.9270577 L9.41264,20.9270577 Z M33.972368,10.4517885 L54.79552,10.4517885 L54.79552,34.6341346 L44.383944,40.3919038 L33.972368,34.6341346 L33.972368,10.4517885 Z M56.047928,24.7280962 L64.008088,22.9442692 C64.406096,23.2338654 64.835432,23.4850385 65.288976,23.6899615 L65.732552,23.8521923 L56.047928,26.0344808 L56.047928,24.7280962 Z M56.047928,20.9612115 L58.67236,20.9612115 C59.009136,21.5539231 59.41996,22.09825 59.89344,22.5820962 L56.047928,23.4466154 L56.047928,20.9612115 Z M60.837552,12.3914423 C61.892736,11.3369423 63.297512,10.6389231 64.866048,10.4845192 C63.956824,10.9690769 63.160808,11.6350769 62.529976,12.4376923 C61.546704,13.6885769 60.959304,15.2703269 60.960016,16.9822885 C60.960016,18.8941923 61.689816,20.6346154 62.886688,21.9431346 L62.860344,21.9217885 L61.407152,22.2469615 C61.407152,22.2469615 60.965,21.8890577 60.837552,21.7616923 C59.636408,20.5606154 58.895928,18.9077115 58.895216,17.0762115 C58.895928,15.2447115 59.636408,13.5925192 60.837552,12.3914423 L60.837552,12.3914423 Z M65.312472,11.6649615 C65.177192,12.0435 65.101008,12.4505 65.100296,12.876 C65.101008,14.7786538 66.544232,16.3426154 68.39828,16.5340192 C68.438864,16.5432692 68.482296,16.5475385 68.52644,16.5475385 C68.550648,16.5475385 69.103872,16.5475385 69.258376,16.5468269 C70.10708,16.5738654 70.869632,16.9225192 71.4314,17.4832115 C72.014528,18.0666731 72.373376,18.8664423 72.373376,19.7558654 C72.373376,20.4730962 72.13984,21.1298462 71.74468,21.6649231 C71.353792,22.1935962 70.804128,22.5963269 70.169736,22.8069423 C69.46984,23.0353462 68.614016,23.0965385 68.32708,23.0965385 C66.635368,23.0965385 65.110264,22.4134615 64.000968,21.3055962 C62.893096,20.1970192 62.209576,18.6721923 62.208864,16.9822885 C62.209576,15.5563654 62.695872,14.2499808 63.512536,13.2097115 C64.004528,12.5842692 64.616136,12.0591538 65.312472,11.6649615 L65.312472,11.6649615 Z M67.060432,11.1555 C67.467696,10.7499231 68.014512,10.4902115 68.624696,10.4517885 L74.886736,10.4517885 L74.882464,11.1284615 L74.882464,11.1313077 C74.881752,11.3895962 74.673136,11.5980769 74.415392,11.5987885 L74.41468,11.5987885 L71.452048,11.6002115 L71.452048,11.6066154 C71.049768,11.6229808 70.685936,11.7894808 70.412528,12.0555962 C70.127728,12.3338077 69.935488,12.7351154 69.935488,13.1833846 C69.931928,13.5725962 70.076464,13.9682115 70.35984,14.2499808 C70.592664,14.4855 70.901672,14.6249615 71.234888,14.6833077 C71.382272,14.6946923 71.37444,14.6954038 71.4492,14.6946923 L72.36768,14.6925577 L72.365544,14.9714808 C72.364832,15.1500769 72.219584,15.2952308 72.04016,15.2952308 L72.039448,15.2952308 C72.038024,15.2952308 68.730784,15.3009231 68.628968,15.3016346 C68.016648,15.2632115 67.468408,15.0035 67.060432,14.5965 C66.618992,14.1539231 66.347008,13.5498269 66.347008,12.876 C66.347008,12.2028846 66.618992,11.5980769 67.060432,11.1555 L67.060432,11.1555 Z M67.307496,6.83219231 C67.462712,6.90405769 67.602976,7.00082692 67.724016,7.12107692 C67.991016,7.38861538 68.154064,7.75292308 68.154776,8.15992308 C68.154064,8.56834615 67.991016,8.93194231 67.724016,9.20019231 C67.6044,9.31901923 67.459152,9.41294231 67.307496,9.48551923 C67.306072,8.79817308 67.307496,6.83219231 67.307496,6.83219231 L67.307496,6.83219231 Z M76.077912,31.1483077 L76.077912,35.6430962 L82.245256,35.6430962 L82.245256,42.0647308 L77.36948,42.0647308 L77.36948,40.7747115 L80.522216,40.7747115 L80.522216,39.4854038 L77.046232,37.2746538 L72.422504,37.2732308 L72.422504,28.5938846 L66.648896,24.9223462 C67.799488,24.6576538 68.80412,24.4264038 69.49832,24.2606154 C69.977496,24.1460577 70.531432,24.0044615 70.531432,24.0044615 C71.072552,23.8301346 71.567392,23.5533462 71.996016,23.2004231 L76.077912,31.1483077 Z M71.13236,31.5837692 L65.328136,34.1275192 L65.328136,40.3157692 L63.555968,40.3171923 L61.808008,42.0647308 L57.485456,42.0647308 L57.485456,40.7754231 L60.695864,40.7754231 L61.54172,37.1707692 L60.221672,33.4515577 L60.205296,33.4060192 L64.291464,29.3225 L71.13236,29.3232115 L71.13236,31.5837692 Z M80.038056,19.6050192 L80.076504,19.5843846 C80.571344,19.2513846 80.898152,18.6821538 80.898152,18.0396346 C80.898152,17.9051538 80.881776,17.7735192 80.85472,17.6468654 C80.967928,17.7144615 81.074728,17.7905962 81.168,17.8830962 C81.458496,18.1741154 81.635072,18.5683077 81.635784,19.0108846 C81.635072,19.5068269 81.411504,19.9437115 81.058352,20.239 C80.48092,20.7470385 80.225312,21.0558462 80.171912,21.6606538 C80.147704,21.9353077 80.233144,22.2028462 80.361304,22.4262692 C80.162656,22.3444423 79.98252,22.2270385 79.831576,22.0776154 C79.536096,21.7809038 79.354536,21.3781731 79.354536,20.9270577 C79.354536,20.3798846 79.624384,19.9017308 80.038056,19.6050192 L80.038056,19.6050192 Z M12.689976,39.4846923 L10.652232,39.4846923 L12.10044,38.56325 L17.635528,38.56325 L17.635528,32.9919038 L22.148184,34.9706923 L22.148184,41.6057885 L24.73132,41.6043654 L26.482128,43.3540385 L32.571864,43.3540385 L32.574,39.4854038 L29.093744,39.4854038 L28.564728,37.23125 L30.022904,33.0979231 L24.956312,28.0353269 L19.624144,28.0374615 L23.889024,25.3250769 L32.71996,27.3145385 L32.71996,35.3947692 L44.383944,41.8655 L56.047928,35.3947692 L56.047928,27.3145385 L64.878864,25.3250769 L69.143744,28.0374615 L63.810864,28.0353269 L58.744984,33.0979231 L60.202448,37.23125 L59.673432,39.4854038 L56.193888,39.4854038 L56.195312,43.3540385 L62.28576,43.3540385 L64.036568,41.6043654 L66.619704,41.6057885 L66.619704,34.9706923 L71.13236,32.9919038 L71.13236,38.56325 L76.667448,38.56325 L78.115656,39.4846923 L76.077912,39.4846923 L76.077912,43.35475 L83.536824,43.35475 L83.536824,34.3530769 L77.36948,34.3530769 L77.36948,31.8441923 C77.666384,31.9452308 77.989632,32.0057115 78.32,32.0064231 C79.944072,32.0057115 81.258424,30.6907885 81.258424,29.0691923 C81.259136,28.3405769 80.99,27.6703077 80.549984,27.158 L80.546424,27.1523077 C80.106408,26.6186538 77.034128,23.1812115 77.034128,23.1812115 C76.49372,22.5650192 76.168336,21.7638269 76.167624,20.8793846 C76.168336,19.9131154 76.559224,19.0436154 77.19148,18.4096346 C77.667096,17.9350385 78.274432,17.5977692 78.956528,17.4575962 C79.069736,17.4319808 79.600176,17.4319808 79.607296,18.0396346 C79.610144,18.2196538 79.523992,18.3740577 79.394408,18.4807885 L79.386576,18.4843462 L79.372336,18.4985769 C78.594832,19.0222692 78.082904,19.9102692 78.082904,20.9178077 C78.082904,22.5273077 79.388712,23.8322692 80.999256,23.8322692 C81.73048,23.8322692 82.398336,23.5640192 82.910264,23.1207308 L82.893888,23.1114808 C82.81628,23.1285577 82.76288,23.1285577 82.678152,23.1285577 C82.060848,23.1285577 81.5596,22.6276346 81.5596,22.0100192 C81.5596,21.7140192 81.674232,21.4457692 81.8622,21.2451154 L81.86576,21.2351538 C82.322152,20.7897308 82.557824,20.4211538 82.554264,20.4197308 C82.789224,20.0020577 82.92664,19.5224808 82.925928,19.0108846 C82.925928,17.8140769 82.19684,16.78875 81.158744,16.3518654 C81.004952,16.2764423 80.512248,16.1583269 80.28868,16.1391154 C80.083624,16.1120769 79.87572,16.0964231 79.662832,16.0964231 C77.019888,16.0964231 74.87748,18.2374423 74.87748,20.8793846 C74.876768,21.9929423 75.263384,23.0204038 75.903472,23.8329808 C75.926968,23.8749615 79.144496,27.4796154 79.549624,27.972 L79.557456,27.9791154 L79.56244,27.9862308 C79.815912,28.2779615 79.96828,28.6529423 79.968992,29.0691923 C79.96828,29.526 79.784584,29.933 79.485544,30.2332692 C79.18508,30.5328269 78.777104,30.7156923 78.32,30.7156923 C77.721208,30.7156923 77.1986,30.3976346 76.908816,29.9187692 L76.902408,29.9109423 L72.914496,22.1665577 C73.361632,21.4713846 73.62436,20.6417308 73.623648,19.7558654 C73.622936,18.4815 73.0868,17.3359231 72.230264,16.5226346 C73.005632,16.428 73.607272,15.7776538 73.611544,14.9778846 L73.612256,14.9778846 L73.622936,14.1019808 C73.62436,13.9361923 73.559568,13.7753846 73.442088,13.6572692 C73.324608,13.5384423 73.162984,13.4715577 72.997088,13.4722692 L71.492632,13.4701346 C71.320328,13.4701346 71.1822,13.3313846 71.1822,13.1606154 C71.1822,12.9898462 71.320328,12.8503846 71.492632,12.8503846 L74.415392,12.84825 C75.364488,12.8475385 76.132736,12.0797885 76.132736,11.1313077 L76.1306,9.20232692 L69.197856,9.20232692 C69.330288,8.88142308 69.405048,8.52921154 69.405048,8.15992308 C69.405048,6.65786538 68.186816,5.44113462 66.683784,5.44113462 C66.339888,5.44113462 66.062208,5.71507692 66.058648,6.05803846 C66.0558,6.30351923 66.054376,6.61944231 66.054376,6.97023077 C66.054376,7.68532692 66.05936,8.54273077 66.061496,9.20375 C65.719024,9.20161538 65.22276,9.20944231 65.22276,9.20944231 C61.01128,9.36882692 57.645656,12.8283269 57.644944,17.0762115 C57.644944,18.0175769 57.811552,18.9190962 58.114152,19.7558654 L56.047928,19.7558654 L56.047928,9.21371154 L32.71996,9.21371154 L32.71996,19.7558654 L30.653736,19.7558654 C30.956336,18.9190962 31.122232,18.0175769 31.122232,17.0762115 C31.12152,12.8283269 27.75732,9.36882692 23.545128,9.20944231 C23.545128,9.20944231 23.048864,9.20161538 22.707104,9.20375 C22.708528,8.54273077 22.713512,7.68532692 22.713512,6.97023077 C22.713512,6.61944231 22.712088,6.30351923 22.70924,6.05803846 C22.70568,5.71507692 22.427288,5.44113462 22.084104,5.44113462 C20.581072,5.44113462 19.363552,6.65786538 19.363552,8.15992308 C19.363552,8.52921154 19.4376,8.88142308 19.570744,9.20232692 L12.636576,9.20232692 L12.635152,11.1313077 C12.635152,12.0797885 13.4034,12.8475385 14.352496,12.84825 L17.275968,12.8503846 C17.446848,12.8503846 17.585688,12.9898462 17.585688,13.1606154 C17.585688,13.3313846 17.446848,13.4701346 17.275968,13.4701346 L15.7708,13.4722692 C15.604192,13.4715577 15.44328,13.5384423 15.3258,13.6572692 C15.20832,13.7753846 15.143528,13.9361923 15.145664,14.1019808 L15.155632,14.9778846 L15.156344,14.9778846 C15.159904,15.7776538 15.762256,16.428 16.537624,16.5226346 C15.6818,17.3359231 15.14424,18.4815 15.14424,19.7558654 C15.143528,20.6417308 15.406256,21.4713846 15.853392,22.1665577 L11.864768,29.9109423 L11.859784,29.9187692 C11.568576,30.3976346 11.04668,30.7156923 10.447176,30.7156923 C9.990784,30.7156923 9.582808,30.5328269 9.281632,30.2332692 C8.983304,29.933 8.799608,29.526 8.799608,29.0691923 C8.799608,28.6529423 8.951976,28.2779615 9.20616,27.9862308 L9.210432,27.9791154 L9.218264,27.972 C9.623392,27.4796154 12.84092,23.8749615 12.864416,23.8329808 C13.504504,23.0204038 13.89112,21.9929423 13.890408,20.8793846 C13.890408,18.2374423 11.747288,16.0964231 9.104344,16.0964231 C8.892168,16.0964231 8.684264,16.1120769 8.479208,16.1391154 C8.25564,16.1583269 7.762936,16.2764423 7.609144,16.3518654 C6.571048,16.78875 5.841248,17.8140769 5.841248,19.0108846 C5.841248,19.5224808 5.978664,20.0020577 6.213624,20.4197308 C6.210064,20.4211538 6.445024,20.7897308 6.902128,21.2351538 L6.9064,21.2451154 C7.093656,21.4457692 7.208288,21.7140192 7.208288,22.0100192 C7.208288,22.6276346 6.706328,23.1285577 6.089024,23.1285577 C6.005008,23.1285577 5.951608,23.1285577 5.874,23.1114808 L5.857624,23.1207308 C6.369552,23.5640192 7.037408,23.8322692 7.768632,23.8322692 C9.378464,23.8322692 10.684984,22.5273077 10.684984,20.9178077 C10.684984,19.9102692 10.172344,19.0222692 9.39484,18.4985769 L9.381312,18.4843462 L9.372768,18.4807885 C9.243896,18.3740577 9.158456,18.2196538 9.160592,18.0396346 C9.167,17.4319808 9.698152,17.4319808 9.81136,17.4575962 C10.492744,17.5977692 11.10008,17.9350385 11.576408,18.4096346 C12.209376,19.0436154 12.59884,19.9131154 12.600264,20.8793846 C12.59884,21.7638269 12.274168,22.5650192 11.73376,23.1812115 C11.73376,23.1812115 8.660768,26.6186538 8.221464,27.1523077 L8.217904,27.158 C7.777176,27.6703077 7.50804,28.3405769 7.508752,29.0691923 C7.508752,30.6907885 8.823816,32.0057115 10.447176,32.0064231 C10.778256,32.0057115 11.101504,31.9452308 11.398408,31.8441923 L11.398408,34.3530769 L5.231776,34.3530769 L5.231776,43.35475 L12.689976,43.35475 L12.689976,39.4846923 L12.689976,39.4846923 Z" id="Fill-35"></path>
                </g>
            </g>
        </g>
    </g>
</svg>