<svg width="178px" height="121px" viewBox="0 0 178 121" version="1.1" xmlns="http://www.w3.org/2000/svg" xmlns:xlink="http://www.w3.org/1999/xlink">
    <g id="Page-1" stroke="none" stroke-width="1" fill="none" fill-rule="evenodd">
        <g id="Group-33" transform="translate(17.000000, 35.000000)" fill="#191445">
            <g id="Group-32">
                <path d="M19.95,12.9 L22.95,12.9 C27,12.9 30.2,10.75 30.2,6.6 L30.2,6.55 C30.2,2.9 27.6,0.35 23.3,0.35 L16,0.35 L16,18.35 L19.95,18.35 L19.95,12.9 Z M19.95,3.9 L23,3.9 C25,3.9 26.2,4.85 26.2,6.6 L26.2,6.65 C26.2,8.2 25.05,9.35 23.05,9.35 L19.9,9.35 L19.9,3.9 L19.95,3.9 Z M41.8,18.6 C47.35,18.6 51.4,14.4 51.4,9.3 L51.4,9.25 C51.4,4.15 47.4,1.77635684e-13 41.85,1.77635684e-13 C36.3,1.77635684e-13 32.25,4.2 32.25,9.3 L32.25,9.35 C32.25,14.45 36.25,18.6 41.8,18.6 Z M36.4,9.25 C36.4,6.15 38.6,3.65 41.8,3.65 C45,3.65 47.25,6.2 47.25,9.3 L47.25,9.35 C47.25,12.45 45.05,14.95 41.85,14.95 C38.65,14.95 36.4,12.4 36.4,9.3 L36.4,9.25 Z M65.5,18.3 L70.1,18.3 L65.7,11.9 C68,11.05 69.55,9.25 69.55,6.3 L69.55,6.25 C69.55,2.55 67,0.3 62.75,0.3 L54.55,0.3 L54.55,18.3 L58.5,18.3 L58.5,12.55 L61.6,12.55 L65.5,18.3 Z M58.55,3.9 L62.5,3.9 C64.45,3.9 65.6,4.75 65.6,6.45 L65.6,6.5 C65.6,8 64.5,9.05 62.55,9.05 L58.55,9.05 L58.55,3.9 Z M80.85,18.3 L80.85,3.95 L86.2,3.95 L86.2,0.3 L71.5,0.3 L71.5,3.95 L76.85,3.95 L76.85,18.3 L80.85,18.3 Z M102.85,14.75 L93.1,14.75 L93.1,11 L101.6,11 L101.6,7.5 L93.1,7.5 L93.1,3.85 L102.75,3.85 L102.75,0.35 L89.2,0.35 L89.2,18.35 L102.9,18.35 L102.9,14.75 L102.85,14.75 Z M117.95,11.85 C120.25,11 121.8,9.2 121.8,6.25 L121.8,6.2 C121.8,2.5 119.25,0.25 115,0.25 L106.8,0.25 L106.8,18.25 L110.75,18.25 L110.75,12.55 L113.85,12.55 L117.7,18.3 L122.35,18.3 L117.95,11.85 Z M117.8,6.5 C117.8,8 116.7,9.05 114.75,9.05 L110.75,9.05 L110.75,3.9 L114.7,3.9 C116.65,3.9 117.8,4.75 117.8,6.45 L117.8,6.5 Z M12.1,33.3 L3.65,22.25 L-1.46371804e-12,22.25 L-1.46371804e-12,40.25 L3.9,40.25 L3.9,28.8 L12.6,40.25 L16,40.25 L16,22.25 L12.1,22.25 L12.1,33.3 Z M28.7,21.95 C23.15,21.95 19.1,26.15 19.1,31.25 L19.1,31.3 C19.1,36.4 23.1,40.55 28.65,40.55 C34.2,40.55 38.25,36.35 38.25,31.25 L38.25,31.2 C38.25,26.05 34.25,21.95 28.7,21.95 Z M34.1,31.3 C34.1,34.4 31.9,36.9 28.7,36.9 C25.5,36.9 23.25,34.35 23.25,31.25 L23.25,31.2 C23.25,28.1 25.45,25.6 28.65,25.6 C31.85,25.6 34.1,28.15 34.1,31.25 L34.1,31.3 Z M47.8,34.9 L43.1,22.25 L38.75,22.25 L46,40.35 L49.5,40.35 L56.75,22.25 L52.5,22.25 L47.8,34.9 Z M63.2,32.95 L71.7,32.95 L71.7,29.45 L63.2,29.45 L63.2,25.8 L72.85,25.8 L72.85,22.3 L59.3,22.3 L59.3,40.3 L73,40.3 L73,36.8 L63.25,36.8 L63.25,32.95 L63.2,32.95 Z M80.85,22.25 L76.9,22.25 L76.9,40.25 L89.3,40.25 L89.3,36.65 L80.85,36.65 L80.85,22.25 Z M95.8,22.25 L91.85,22.25 L91.85,40.25 L104.25,40.25 L104.25,36.65 L95.8,36.65 L95.8,22.25 Z M106.8,40.25 L110.75,40.25 L110.75,22.25 L106.8,22.25 L106.8,40.25 Z" id="Fill-1"></path>
                <polygon id="Fill-2" points="134.3 22.25 125.05 22.25 134.75 36.45 144 36.45"></polygon>
                <polygon id="Fill-3" points="134.3 50.65 125.05 50.65 134.75 36.45 144 36.45"></polygon>
            </g>
        </g>
    </g>
</svg>