<svg xmlns="http://www.w3.org/2000/svg" viewBox="0 0 155.12 63.96"><defs><style>.cls-1{fill:#191445;}</style></defs><title>Asset 1</title><g id="Layer_2" data-name="Layer 2"><g id="Layer_1-2" data-name="Layer 1"><path class="cls-1" d="M21.49,13.9h3.24c4.35,0,7.83-2.33,7.83-6.81V7c0-4-2.79-6.7-7.41-6.7H17.23V19.71h4.26Zm0-9.72h3.3c2.13,0,3.46,1,3.46,2.93v.06c0,1.66-1.25,2.93-3.38,2.93H21.49ZM45,20A10,10,0,0,0,55.36,10v0A9.93,9.93,0,0,0,45.09,0,10,10,0,0,0,34.77,10v.05A9.93,9.93,0,0,0,45,20ZM39.22,10a5.8,5.8,0,0,1,5.82-6A5.89,5.89,0,0,1,50.91,10v.05a5.8,5.8,0,0,1-5.82,6A5.89,5.89,0,0,1,39.22,10Zm31.36,9.74h5l-4.73-6.92a6,6,0,0,0,4.15-6v0c0-4-2.74-6.4-7.3-6.4H58.82V19.71h4.26v-6.2h3.35ZM63.08,4.18h4.24c2.07,0,3.34.94,3.34,2.77V7c0,1.63-1.18,2.74-3.26,2.74H63.08Zm24,15.53V4.26h5.78V.33H77.05V4.26h5.79V19.71Zm23.69-3.79H100.27V11.85h9.13V8.05h-9.13V4.13h10.38V.33H96V19.71h14.75Zm16.28-3.13a6,6,0,0,0,4.15-6v0c0-4-2.74-6.4-7.31-6.4h-8.86V19.71h4.27v-6.2h3.35l4.15,6.2h5ZM126.9,7c0,1.63-1.19,2.74-3.26,2.74h-4.32V4.18h4.23c2.08,0,3.35.94,3.35,2.77ZM13,35.89,3.93,24H0V43.34H4.21V31l9.38,12.32h3.63V24H13ZM30.92,23.63a10,10,0,0,0-10.33,10v.06a9.93,9.93,0,0,0,10.27,10,10,10,0,0,0,10.32-10v0A9.93,9.93,0,0,0,30.92,23.63Zm5.81,10.08a5.79,5.79,0,0,1-5.81,6,5.88,5.88,0,0,1-5.87-6.09v0a5.79,5.79,0,0,1,5.81-6,5.89,5.89,0,0,1,5.87,6.09Zm14.75,3.9L46.41,24h-4.7l7.83,19.52h3.77L61.14,24h-4.6Zm16.57-2.13h9.14v-3.8H68.05V27.76H78.44V24H63.82V43.34H78.57V39.55H68.05ZM87.1,24H82.84V43.34H96.2V39.46H87.1Zm16.11,0H99V43.34h13.36V39.46h-9.1Zm11.84,19.38h4.27V24h-4.27Z"/><polygon class="cls-1" points="144.67 54.54 134.7 54.54 145.16 39.25 155.12 39.25 144.67 54.54"/><polygon class="cls-1" points="144.67 23.96 134.7 23.96 145.16 39.25 155.12 39.25 144.67 23.96"/><path class="cls-1" d="M25.23,61.47c0,.39,0,1.92,0,2.25a.24.24,0,0,1-.24.14c-.16-.22-.53-.67-1.65-1.94l-3-3.39c-.34-.4-1.22-1.45-1.49-1.73h0a3.22,3.22,0,0,0-.07.83v2.8a10.38,10.38,0,0,0,.23,2.66c.08.14.34.22.66.25l.39,0a.23.23,0,0,1,0,.32c-.58,0-1,0-1.5,0s-.89,0-1.34,0a.25.25,0,0,1,0-.32l.35,0c.3,0,.5-.12.57-.26a12.42,12.42,0,0,0,.16-2.65V56.72A1.19,1.19,0,0,0,18,55.8a1.47,1.47,0,0,0-.81-.31l-.21,0c-.08-.08-.08-.27,0-.32.54,0,1.22,0,1.45,0a3.49,3.49,0,0,0,.59,0A18.13,18.13,0,0,0,21.26,58l1.25,1.4c.88,1,1.51,1.7,2.12,2.32h0a1.35,1.35,0,0,0,.05-.54V58.4a9.22,9.22,0,0,0-.25-2.66c-.08-.11-.29-.19-.8-.25l-.22,0a.21.21,0,0,1,0-.32c.59,0,1,0,1.52,0s.88,0,1.32,0a.22.22,0,0,1,0,.32l-.18,0c-.41.06-.67.17-.72.27a10.24,10.24,0,0,0-.19,2.64Z"/><path class="cls-1" d="M32.13,61.08a2.62,2.62,0,0,1-2.7,2.76,2.54,2.54,0,0,1-2.64-2.65,2.7,2.7,0,0,1,2.74-2.77,2.55,2.55,0,0,1,2.6,2.66M29.38,58.8c-.85,0-1.48.81-1.48,2.22,0,1.17.52,2.43,1.65,2.43S31,62.27,31,61.28s-.43-2.48-1.65-2.48"/><path class="cls-1" d="M33.84,60c0-.5,0-.57-.35-.8l-.11-.07c-.05-.05-.05-.2,0-.23a11.81,11.81,0,0,0,1.3-.63c.06,0,.1,0,.1.09v.74c0,.07,0,.1,0,.12a2.59,2.59,0,0,1,1.41-.77.53.53,0,0,1,.58.51.57.57,0,0,1-.55.59.49.49,0,0,1-.28-.09,1.18,1.18,0,0,0-.57-.21.56.56,0,0,0-.46.26,2,2,0,0,0-.17,1v1.75c0,.92,0,1.08.51,1.11l.46.05a.22.22,0,0,1,0,.32c-.6,0-1,0-1.42,0s-.85,0-1.18,0a.22.22,0,0,1,0-.32l.24-.05c.48-.07.49-.19.49-1.11Z"/><path class="cls-1" d="M42.11,61.78c0,1,0,1.49.37,1.49a2.44,2.44,0,0,0,.56-.13c.09,0,.1.35,0,.42a9.48,9.48,0,0,0-1.7.4c-.07,0-.13,0-.13-.1v-.22a1.14,1.14,0,0,0,0-.39h0a2.71,2.71,0,0,1-1.62.59,2.35,2.35,0,0,1-2.37-2.47,2.9,2.9,0,0,1,3.1-2.95,2.7,2.7,0,0,1,.86.11c.07,0,.08-.08.08-.18V56.41c0-.75,0-.83-.4-1.06l-.13-.08a.21.21,0,0,1,0-.26A9.05,9.05,0,0,0,42,54.48a.15.15,0,0,1,.13.07c0,.39,0,1,0,1.6Zm-1-1.92a.78.78,0,0,0-.14-.51,1.33,1.33,0,0,0-1.08-.53c-1.17,0-1.77,1-1.77,2.13a2,2,0,0,0,1.91,2.27,1.53,1.53,0,0,0,1-.36.77.77,0,0,0,.09-.48Z"/><path class="cls-1" d="M46.72,58.64a3.21,3.21,0,0,1,.2,1,.23.23,0,0,1-.31,0,1.24,1.24,0,0,0-1.12-.94.76.76,0,0,0-.83.78c0,.53.54.81,1,1.07.69.38,1.31.82,1.31,1.73s-.9,1.47-1.85,1.47a2.11,2.11,0,0,1-1.37-.39,3.75,3.75,0,0,1-.16-1.3c.07-.07.24-.09.3,0,.22.71.63,1.32,1.36,1.32a.79.79,0,0,0,.86-.82c0-.59-.51-.91-1-1.18-.75-.42-1.27-.87-1.27-1.58,0-.94.77-1.46,1.75-1.46a2.38,2.38,0,0,1,1.13.22"/><path class="cls-1" d="M53.25,61.73c0,1.35,0,1.52.85,1.6l.35.05a.24.24,0,0,1,0,.32c-.73,0-1.16,0-1.67,0s-1,0-1.57,0a.25.25,0,0,1,0-.32l.26-.05c.75-.1.78-.25.78-1.6V57c0-1.09,0-1.31-.6-1.37l-.47,0a.21.21,0,0,1,0-.32,18.31,18.31,0,0,1,2.54-.11,4.59,4.59,0,0,1,2.47.52,2.29,2.29,0,0,1-.26,4,4.48,4.48,0,0,1-1.77.38c-.09,0-.09-.23,0-.26A2,2,0,0,0,56,57.59a1.89,1.89,0,0,0-2.07-2.05c-.68,0-.69.05-.69.46Z"/><path class="cls-1" d="M62.71,61.08A2.63,2.63,0,0,1,60,63.84a2.54,2.54,0,0,1-2.63-2.65,2.7,2.7,0,0,1,2.74-2.77,2.57,2.57,0,0,1,2.61,2.66M59.94,58.8c-.85,0-1.48.81-1.48,2.22,0,1.17.53,2.43,1.66,2.43s1.48-1.18,1.48-2.17-.44-2.48-1.66-2.48"/><path class="cls-1" d="M64.41,60c0-.5,0-.57-.35-.8l-.12-.07c0-.05,0-.2,0-.23a11.7,11.7,0,0,0,1.29-.63c.06,0,.11,0,.11.09v.74c0,.07,0,.1,0,.12a2.59,2.59,0,0,1,1.41-.77.53.53,0,0,1,.58.51.57.57,0,0,1-.55.59.53.53,0,0,1-.29-.09,1.11,1.11,0,0,0-.57-.21.59.59,0,0,0-.46.26,2.09,2.09,0,0,0-.16,1v1.75c0,.92,0,1.08.51,1.11l.46.05a.22.22,0,0,1,0,.32c-.6,0-1,0-1.43,0s-.85,0-1.18,0a.22.22,0,0,1,0-.32l.25-.05c.47-.07.49-.19.49-1.11Z"/><path class="cls-1" d="M69.83,59.14c-.23,0-.24,0-.24.31v2.4c0,.74.09,1.42.94,1.42a1,1,0,0,0,.35-.06c.11,0,.28-.18.32-.18s.15.14.13.22a1.81,1.81,0,0,1-1.35.59c-1.11,0-1.34-.62-1.34-1.39V59.51c0-.35,0-.37-.27-.37H68a.24.24,0,0,1,0-.28,2.4,2.4,0,0,0,.82-.39,3,3,0,0,0,.54-.76.22.22,0,0,1,.26.06v.58c0,.24,0,.25.24.25h1.42a.41.41,0,0,1,0,.54Z"/><path class="cls-1" d="M73.13,60.37c-.34,0-.35,0-.35.35a2.17,2.17,0,0,0,2.13,2.4,1.39,1.39,0,0,0,1.18-.63.17.17,0,0,1,.23.15,2.23,2.23,0,0,1-2,1.2A2.32,2.32,0,0,1,72.44,63a2.77,2.77,0,0,1-.54-1.67,2.69,2.69,0,0,1,2.58-2.9A1.68,1.68,0,0,1,76.31,60a.74.74,0,0,1,0,.33c0,.08-.22.09-.76.09Zm.79-.39c1,0,1.23,0,1.33-.12s.08-.08.08-.25c0-.36-.24-.81-1-.81a1.5,1.5,0,0,0-1.42,1.12s0,.06.09.06Z"/><path class="cls-1" d="M77.8,60c0-.5,0-.57-.35-.8l-.12-.07c0-.05,0-.2,0-.23a11.81,11.81,0,0,0,1.3-.63c.06,0,.1,0,.1.09v.74c0,.07,0,.1,0,.12a2.56,2.56,0,0,1,1.41-.77.52.52,0,0,1,.57.51.57.57,0,0,1-.54.59.5.5,0,0,1-.29-.09,1.15,1.15,0,0,0-.56-.21.59.59,0,0,0-.47.26,2.09,2.09,0,0,0-.16,1v1.75c0,.92,0,1.08.51,1.11l.46.05a.22.22,0,0,1,0,.32c-.61,0-1,0-1.43,0s-.85,0-1.18,0a.22.22,0,0,1,0-.32l.24-.05c.47-.07.49-.19.49-1.11Z"/><path class="cls-1" d="M92.56,61.47c0,.39,0,1.92,0,2.25a.23.23,0,0,1-.24.14c-.16-.22-.53-.67-1.65-1.94l-3-3.39c-.34-.4-1.22-1.45-1.48-1.73h0a3.22,3.22,0,0,0-.07.83v2.8a9.93,9.93,0,0,0,.24,2.66c.07.14.33.22.65.25l.4,0a.24.24,0,0,1,0,.32c-.57,0-1,0-1.5,0s-.89,0-1.33,0a.23.23,0,0,1,0-.32l.35,0c.29,0,.5-.12.56-.26a12.39,12.39,0,0,0,.17-2.65V56.72a1.13,1.13,0,0,0-.29-.92,1.38,1.38,0,0,0-.79-.31l-.22,0c-.08-.08-.08-.27,0-.32.54,0,1.22,0,1.44,0a3.7,3.7,0,0,0,.6,0A17.55,17.55,0,0,0,88.6,58l1.24,1.4c.89,1,1.52,1.7,2.12,2.32h0a1.14,1.14,0,0,0,.06-.54V58.4a9.21,9.21,0,0,0-.26-2.66c-.07-.11-.29-.19-.8-.25l-.22,0c-.08-.08-.07-.28,0-.32.59,0,1,0,1.52,0s.88,0,1.32,0a.22.22,0,0,1,0,.32l-.17,0c-.42.06-.67.17-.73.27a10.7,10.7,0,0,0-.19,2.64Z"/><path class="cls-1" d="M99.47,61.08a2.63,2.63,0,0,1-2.71,2.76,2.54,2.54,0,0,1-2.64-2.65,2.7,2.7,0,0,1,2.74-2.77,2.56,2.56,0,0,1,2.61,2.66M96.71,58.8c-.85,0-1.48.81-1.48,2.22,0,1.17.53,2.43,1.65,2.43s1.48-1.18,1.48-2.17-.43-2.48-1.65-2.48"/><path class="cls-1" d="M100.76,59.87c-.19-.48-.31-.89-.77-.95l-.25,0c-.08-.11-.07-.28,0-.32.32,0,.77,0,1.21,0s.6,0,1,0a.22.22,0,0,1,0,.32l-.15,0c-.4.07-.41.13-.28.52.29.89.67,1.78,1,2.45a2.09,2.09,0,0,0,.21.41,1.6,1.6,0,0,0,.24-.49c.17-.43.61-1.55.73-1.88a2.85,2.85,0,0,0,.23-.8c0-.11-.07-.17-.23-.19l-.29,0a.23.23,0,0,1,0-.32c.4,0,.72,0,1,0s.54,0,.9,0a.23.23,0,0,1,0,.32l-.19,0c-.45.07-.56.41-.94,1.12-.18.35-1,2.21-1.18,2.74-.13.32-.26.62-.42,1.05a.15.15,0,0,1-.13,0,.23.23,0,0,1-.17,0c-.1-.36-.3-.86-.49-1.34Z"/><path class="cls-1" d="M106.85,60.37c-.34,0-.35,0-.35.35a2.18,2.18,0,0,0,2.13,2.4,1.37,1.37,0,0,0,1.18-.63.18.18,0,0,1,.24.15,2.25,2.25,0,0,1-2,1.2,2.28,2.28,0,0,1-1.86-.85,2.9,2.9,0,0,1,2-4.57A1.68,1.68,0,0,1,110,60a.74.74,0,0,1,0,.33c0,.08-.22.09-.76.09Zm.79-.39a3.28,3.28,0,0,0,1.34-.12s.08-.08.08-.25c0-.36-.25-.81-1-.81a1.5,1.5,0,0,0-1.43,1.12s0,.06.09.06Z"/><path class="cls-1" d="M112.34,62.22c0,.92,0,1.05.49,1.11l.31.05a.23.23,0,0,1,0,.32c-.43,0-.8,0-1.25,0s-.85,0-1.24,0a.23.23,0,0,1,0-.32l.3-.05c.47-.06.48-.19.48-1.11V56.41c0-.75,0-.83-.4-1.06l-.12-.08a.19.19,0,0,1,0-.26,9,9,0,0,0,1.38-.53.13.13,0,0,1,.13.07c0,.39,0,1,0,1.6Z"/><path class="cls-1" d="M115.51,62.22c0,.92,0,1.05.49,1.11l.31.05a.22.22,0,0,1,0,.32c-.42,0-.8,0-1.24,0s-.85,0-1.23,0a.22.22,0,0,1,0-.32l.29-.05c.48-.06.5-.19.5-1.11V56.41c0-.75,0-.83-.4-1.06l-.14-.08a.21.21,0,0,1,0-.26,8.68,8.68,0,0,0,1.39-.53.14.14,0,0,1,.13.07c0,.39,0,1,0,1.6Z"/><path class="cls-1" d="M117.86,60c0-.5,0-.57-.34-.8l-.12-.07a.19.19,0,0,1,0-.24,7.56,7.56,0,0,0,1.32-.63c.07,0,.12,0,.13.08,0,.45,0,1.07,0,1.6v2.31c0,.92,0,1.05.49,1.11l.28.05a.22.22,0,0,1,0,.31c-.38,0-.75,0-1.2,0s-.85,0-1.21,0a.21.21,0,0,1,0-.31l.28-.05c.47-.06.48-.19.48-1.11Zm1.07-3.66a.67.67,0,0,1-1.34,0,.67.67,0,0,1,.69-.7.65.65,0,0,1,.65.67"/></g></g></svg>