<svg width="1200" height="1200" viewBox="0 0 1200 1200" fill="none" xmlns="http://www.w3.org/2000/svg">
<path d="M135.404 699.825H95.3118V599.846H68V567.295H95.3108V544.133C95.3108 516.685 107.39 497 147.374 497C155.831 497 169.108 498.705 169.108 498.705V528.931H155.163C140.954 528.931 135.407 533.254 135.407 545.207V567.295H168.576L165.622 599.846H135.405L135.404 699.825ZM227.398 564.694C226.814 564.694 226.213 564.715 225.618 564.73C188.442 564.73 171.433 592.703 171.433 632.412C171.433 682.435 193.496 702.455 225.908 702.455C244.453 702.455 256.637 694.647 264.042 680.076V699.839H302.176V567.309H264.042V587.69C257.995 574.577 245.471 564.849 227.398 564.694V564.694ZM237.094 596.01C252.708 596.01 262.08 606.905 262.08 625.436L262.116 644.364C262.116 656.854 254.376 671.466 237.094 671.466C210.526 671.466 211.236 642.769 211.236 633.211C211.236 601.061 225.391 596.01 237.094 596.01V596.01ZM317.576 633.581C317.576 617.476 316.806 564.78 385.438 564.78C412.988 564.78 424.492 573.543 424.492 573.543L415.246 602.23C415.246 602.23 403.757 595.902 388.786 595.902C369.612 595.902 357.377 607.021 357.377 626.585L357.398 640.613C357.398 659.412 369.204 671.96 388.826 671.96C402.464 671.96 415.034 665.572 415.034 665.572L424.257 693.66C424.257 693.66 413.738 702.478 385.631 702.478C320.282 702.478 317.577 655.2 317.577 633.581H317.576ZM648.084 564.73C685.262 564.73 702.539 592.703 702.539 632.412C702.539 682.435 680.475 702.455 648.062 702.455C629.518 702.455 615.809 694.648 608.403 680.076V699.839L570.75 699.824V501.03L610.728 497.542V585.895C616.498 570.437 635.461 564.73 648.085 564.73H648.084ZM636.876 596.01C621.262 596.01 610.728 606.905 610.728 625.436L610.691 644.364C610.668 656.854 617.986 671.466 636.876 671.466C663.444 671.466 662.735 642.769 662.735 633.211C662.735 601.061 648.58 596.01 636.876 596.01ZM493.859 564.84C451.692 564.84 429.431 587.837 429.431 628.706V636.299C429.431 689.343 460.693 703 497.962 703C534.188 703 550.586 692.864 550.586 692.864L543.105 665.872C543.105 665.872 523.817 674.082 502.756 674.082C480.922 674.082 471.533 668.515 469.126 647.526H553.782V625.872C553.782 581.539 528.798 564.839 493.857 564.839L493.859 564.84ZM494.875 591.868C509.471 591.868 518.929 600.821 518.409 621.586H469.199C470.053 599.731 480.252 591.869 494.875 591.869V591.868ZM782.255 564.658C738.953 564.658 716.157 589.068 716.157 632.811C716.157 692.83 755.453 702.491 782.327 702.491C821.669 702.491 847.844 681.303 847.844 633.356C847.844 583.452 818.414 564.658 782.255 564.658V564.658ZM781.71 596.119C800.75 596.119 808.295 610.374 808.295 626.6V640.55C808.295 660.207 797.738 671.576 781.638 671.576C766.58 671.576 755.997 660.941 755.997 640.55V626.6C755.997 604.853 768.59 596.119 781.71 596.119V596.119ZM927.489 564.658C884.187 564.658 861.391 589.068 861.391 632.811C861.391 692.83 900.686 702.491 927.561 702.491C966.902 702.491 993.078 681.303 993.078 633.356C993.078 583.452 963.646 564.658 927.489 564.658V564.658ZM926.944 596.119C945.984 596.119 953.528 610.374 953.528 626.6V640.55C953.528 660.207 942.971 671.576 926.871 671.576C911.814 671.576 901.231 660.941 901.231 640.55V626.6C901.231 604.853 913.824 596.119 926.944 596.119V596.119ZM1008.19 699.825V501.03L1048.28 497.543V630.788L1088.06 567.296H1130.4L1088.91 633.055L1132 699.825H1089.54L1048.28 634.991V699.825H1008.19Z" fill="#191445"/>
</svg>
