<svg width="178px" height="121px" viewBox="0 0 178 121" version="1.1" xmlns="http://www.w3.org/2000/svg" xmlns:xlink="http://www.w3.org/1999/xlink">
    <g id="Page-1" stroke="none" stroke-width="1" fill="none" fill-rule="evenodd">
        <g id="Group-37" transform="translate(56.000000, 27.000000)">
            <g id="Group-17">
                <polygon id="Fill-2" fill="#191445" points="0.6657 65.862 65.8647 65.862 65.8647 0.665 0.6657 0.665"></polygon>
                <path d="M7.29,57.1269 L8.971,57.1269 L8.21,52.8949 L8.182,52.8949 L7.29,57.1269 Z M6.735,50.6739 L10.183,50.6739 L12.401,61.0719 L9.743,61.0719 L9.335,58.9659 L6.928,58.9659 L6.474,61.0719 L4.297,61.0719 L6.735,50.6739 Z" id="Fill-4" fill="#FFFFFF"></path>
                <path d="M18.9443,61.0717 L16.5803,61.0717 L16.5803,60.0927 L16.5483,60.0927 C16.0513,60.8377 15.3073,61.2447 14.4643,61.2447 C13.5103,61.2447 12.8993,60.6037 12.8993,59.5947 L12.8993,53.7377 L15.2643,53.7377 L15.2643,58.9237 C15.2643,59.3177 15.3953,59.5827 15.8343,59.5827 C16.0853,59.5827 16.2863,59.4807 16.4473,59.2757 L16.5803,59.1007 L16.5803,53.7377 L18.9443,53.7377 L18.9443,61.0717 Z" id="Fill-5" fill="#FFFFFF"></path>
                <path d="M20.3916,55.4042 L19.4266,55.4042 L19.4266,53.7382 L20.3916,53.7382 L20.3916,51.1112 L22.7566,51.1112 L22.7566,53.7382 L24.0576,53.7382 L24.0576,55.4042 L22.7566,55.4042 L22.7566,58.5172 C22.7566,59.0272 22.7566,59.4062 23.5166,59.4062 C23.7056,59.4062 23.8966,59.3792 24.0576,59.3342 L24.0576,61.0582 C23.5866,61.1882 22.9026,61.2452 22.3896,61.2452 C21.1356,61.2452 20.3916,60.7062 20.3916,59.3922 L20.3916,55.4042 Z" id="Fill-6" fill="#FFFFFF"></path>
                <path d="M24.3916,57.3754 C24.3916,59.6554 25.4446,61.2444 27.6946,61.2444 C29.9416,61.2444 30.9936,59.6554 30.9936,57.3754 C30.9936,55.1844 29.8996,53.5644 27.6946,53.5644 C25.4866,53.5644 24.3916,55.1844 24.3916,57.3754 M26.8446,57.3754 C26.8446,55.6804 27.0206,55.0524 27.6946,55.0524 C28.3646,55.0524 28.5396,55.6804 28.5396,57.3754 C28.5396,59.2334 28.2786,59.7564 27.6946,59.7564 C27.1106,59.7564 26.8446,59.2334 26.8446,57.3754" id="Fill-7" fill="#FFFFFF"></path>
                <polygon id="Fill-8" fill="#FFFFFF" points="31.8408 50.6733 34.2078 50.6733 34.2078 56.0323 34.2348 56.0323 36.0888 53.7383 38.2508 53.7383 36.4088 55.8453 38.3388 61.0713 35.8838 61.0713 34.7918 57.6963 34.7588 57.6963 34.2078 58.3543 34.2078 61.0713 31.8408 61.0713"></polygon>
                <polygon id="Fill-9" fill="#FFFFFF" points="38.8097 61.072 41.1727 61.072 41.1727 50.674 38.8097 50.674"></polygon>
                <path d="M48.415,61.0717 L46.051,61.0717 L46.051,60.0927 L46.024,60.0927 C45.524,60.8377 44.78,61.2447 43.934,61.2447 C42.983,61.2447 42.37,60.6037 42.37,59.5947 L42.37,53.7377 L44.735,53.7377 L44.735,58.9237 C44.735,59.3177 44.866,59.5827 45.306,59.5827 C45.553,59.5827 45.757,59.4807 45.921,59.2757 L46.051,59.1007 L46.051,53.7377 L48.415,53.7377 L48.415,61.0717 Z" id="Fill-10" fill="#FFFFFF"></path>
                <path d="M49.792,50.6733 L52.157,50.6733 L52.157,54.1633 L52.182,54.1633 C52.519,53.8153 53.136,53.5643 53.616,53.5643 C55.251,53.5643 56.128,55.1983 56.128,57.3163 C56.128,58.9983 55.426,61.1583 53.44,61.1583 C52.519,61.1583 51.923,60.7203 51.452,60.0203 L51.014,61.0713 L49.792,61.0713 L49.792,50.6733 Z M52.157,58.7193 C52.114,59.3333 52.476,59.6703 52.931,59.6703 C53.583,59.6703 53.673,59.0113 53.673,57.6543 L53.673,57.0993 C53.673,55.6383 53.673,54.8803 52.944,54.8803 C52.65,54.8803 52.433,55.0523 52.286,55.1723 L52.157,55.3023 L52.157,58.7193 Z" id="Fill-11" fill="#FFFFFF"></path>
                <path d="M60.6826,55.9902 C60.4656,55.5502 60.1576,55.0522 59.5736,55.0522 C59.0906,55.0522 58.8756,55.2872 58.8756,55.5212 C58.8756,56.7042 62.4656,56.3242 62.4656,58.7502 C62.4656,60.3252 61.2686,61.2452 59.5306,61.2452 C57.8966,61.2452 56.8266,60.3692 56.4486,59.1742 L58.2606,58.6042 C58.5376,59.1572 58.8446,59.6702 59.5306,59.6702 C59.9676,59.6702 60.2766,59.4492 60.2766,59.1292 C60.2766,57.9012 56.6806,58.3832 56.6806,55.8462 C56.6806,55.0702 57.4426,53.5652 59.5306,53.5652 C60.7136,53.5652 61.9106,54.1202 62.3346,55.5502 L60.6826,55.9902 Z" id="Fill-12" fill="#FFFFFF"></path>
                <polygon id="Fill-13" fill="#FFFFFF" points="7.5615 17.2944 12.5615 17.2944 12.5615 20.8264 3.3895 20.8264 3.3895 4.7774 7.5615 4.7774"></polygon>
                <path d="M23.7588,18.037 L24.7998,20.826 L29.2508,20.826 L23.2058,4.778 L18.6508,4.778 L12.4788,20.826 L16.9048,20.826 L18.0108,18.037 L23.7588,18.037 Z M22.6318,14.842 L19.1608,14.842 L20.8858,9.734 L20.9268,9.734 L22.6318,14.842 Z" id="Fill-14" fill="#FFFFFF"></path>
                <polygon id="Fill-15" fill="#FFFFFF" points="32.3134 4.7777 36.4224 4.7777 39.6824 13.3547 43.1264 4.7777 47.2784 4.7777 49.7054 20.8267 45.5304 20.8267 44.3624 11.5877 44.3204 11.5877 40.4654 20.8267 38.8094 20.8267 35.1244 11.5877 35.0834 11.5877 33.7404 20.8267 29.5884 20.8267"></polygon>
                <path d="M55.6416,7.9696 L55.9406,7.9696 C57.0676,7.9696 58.3666,8.0546 58.3666,9.5236 C58.3666,10.8846 57.2156,11.0776 56.1116,11.0776 L55.6416,11.0776 L55.6416,7.9696 Z M57.8976,20.8266 C60.8326,20.8266 63.7096,19.7176 63.7096,16.3566 C63.7096,14.1226 62.7306,12.5676 60.4326,12.2686 L60.4326,12.2266 C61.7276,11.5666 62.1966,10.3966 62.1966,8.9466 C62.1966,5.8826 60.2826,4.7776 57.4286,4.7776 L51.4716,4.7776 L51.4716,20.8266 L57.8976,20.8266 Z M55.6416,14.1846 L56.0676,14.1846 C57.4286,14.1846 59.4946,13.9946 59.4946,15.9316 C59.4946,17.6956 57.4086,17.6336 56.1726,17.6336 L55.6416,17.6336 L55.6416,14.1846 Z" id="Fill-16" fill="#FFFFFF"></path>
            </g>
        </g>
    </g>
</svg>