<svg width="178px" height="121px" viewBox="0 0 178 121" version="1.1" xmlns="http://www.w3.org/2000/svg" xmlns:xlink="http://www.w3.org/1999/xlink">
     <defs>
        <polygon id="path-1" points="25.9712889 52 0.0507640068 52 0.0507640068 0.125107527 25.9712889 0.125107527 51.8918138 0.125107527 51.8918138 52 25.9712889 52"></polygon>
    </defs>
    <g id="Page-1" stroke="none" stroke-width="1" fill="none" fill-rule="evenodd">
        <g id="Group-16" transform="translate(17.000000, 34.000000)">
            <g id="Group-3">
                <mask id="mask-2" fill="white">
                    <use xlink:href="#path-1"></use>
                </mask>
                <g id="Clip-2"></g>
                <path d="M15.583704,41.6221449 L15.5676287,41.6221449 C12.7104612,41.6170685 10.3956225,39.2996916 10.3947765,36.4408319 L10.3947765,36.4399859 C10.3956225,33.6141228 12.6588512,31.3212818 15.4711771,31.2654414 C15.5058659,31.2654414 36.386794,31.2654414 36.4214827,31.2654414 C39.2338087,31.3212818 41.4970374,33.6141228 41.4970374,36.4399859 L41.4970374,36.4408319 C41.4970374,39.2996916 39.1821986,41.6170685 36.3250311,41.6221449 L15.583704,41.6221449 Z M36.3081098,10.5029626 L36.3250311,10.5029626 L36.3250311,10.5114233 C39.1821986,10.5156537 41.4970374,12.8330306 41.4970374,15.6918902 L41.4970374,15.6927363 C41.4970374,18.5185993 39.2338087,20.8114403 36.4214827,20.8681268 C36.386794,20.8672807 15.5058659,20.8672807 15.4711771,20.8681268 C12.6588512,20.8114403 10.3956225,18.5185993 10.3947765,15.6927363 L10.3947765,15.6918902 C10.3956225,12.8330306 12.7104612,10.5156537 15.5676287,10.5114233 L15.5676287,10.5029626 L36.3081098,10.5029626 Z M0,52 L51.8918138,52 L51.8918138,0.125107527 L0,0.125107527 L0,52 Z" id="Fill-1" fill="#191445" mask="url(#mask-2)"></path>
            </g>
            <polyline id="Fill-4" fill="#191445" points="63.1646481 10 63.1646481 15.9606803 67 15.9606803 67 17 62 17 62 10 63.1646481 10"></polyline>
            <path d="M72,11.180316 L70.4210763,14.5101918 L73.5789237,14.5101918 L72,11.180316 Z M74.0166629,15.5300929 L69.9734294,15.5300929 L69.2690835,17 L68,17 L71.3487953,10 L72.6512047,10 L76,17 L74.7309165,17 L74.0166629,15.5300929 L74.0166629,15.5300929 Z" id="Fill-5" fill="#191445"></path>
            <path d="M77.4123985,11.0097696 L75,11.0097696 L75,10 C77.1077491,10 78.8922509,10 81,10 L81,11.0097696 L78.5982288,11.0097696 L78.5982288,17 L77.4123985,17 L77.4123985,11.0097696" id="Fill-6" fill="#191445"></path>
            <polyline id="Fill-7" fill="#191445" points="85.0926463 17 83.9192066 17 81 10 82.2648766 10 84.5008466 15.6659061 86.7469763 10 88 10 85.0926463 17"></polyline>
            <polygon id="Fill-8" fill="#191445" points="89 17 90 17 90 10 89 10"></polygon>
            <path d="M98,10 L98,14.0251036 C98,15.7823564 96.838055,17 94.9953488,17 C93.2524313,17 92,15.9398461 92,14.083955 L93.1019027,14.083955 C93.1019027,15.2916519 93.7725159,15.9696862 94.9953488,15.9696862 C96.2164905,15.9696862 96.8778013,15.1640024 96.8778013,14.0251036 L96.8778013,11.021196 L94.6241015,11.021196 L94.6241015,10 L98,10" id="Fill-9" fill="#191445"></path>
            <path d="M102.99955,11.180316 L101.420804,14.5101918 L104.579196,14.5101918 L102.99955,11.180316 Z M105.015986,15.5300929 L100.973207,15.5300929 L100.268941,17 L99,17 L102.349319,10 L103.650681,10 L107,17 L105.731059,17 L105.015986,15.5300929 L105.015986,15.5300929 Z" id="Fill-10" fill="#191445"></path>
            <path d="M111.822454,11.6638752 C111.487359,11.207755 110.807742,10.9315131 110.065562,10.9218768 C109.111698,10.9218768 108.421797,11.292876 108.421797,11.9304807 C108.421797,12.5769187 109.212827,12.7576001 110.146979,12.8812665 C111.608199,13.0715843 113,13.4522198 113,14.9458529 C112.989716,16.438683 111.537923,17 110.056135,17 C108.695186,17 107.649621,16.6097281 107,15.4870942 L107.852735,14.9554893 C108.360091,15.763336 109.243679,16.0484112 110.065562,16.0484112 C110.918297,16.0484112 111.862734,15.7826087 111.862734,14.9458529 C111.862734,14.2223242 111.040851,13.9749914 110.044994,13.851325 C108.634338,13.6706436 107.293958,13.3381897 107.293958,11.911208 C107.284531,10.5316049 108.756892,10 110.035566,10 C111.060563,10 112.086416,10.2272571 112.684616,11.1218309 L111.822454,11.6638752" id="Fill-11" fill="#191445"></path>
            <path d="M63.146469,28.959836 L65.3156059,28.959836 C65.9555362,28.959836 66.8439407,28.7597395 66.8439407,27.9897479 C66.8439407,27.2400193 65.9860506,26.8997708 65.3251962,26.8997708 C64.5919791,26.8997708 63.8796861,26.8997708 63.146469,26.8997708 L63.146469,28.959836 Z M63.146469,25.9001327 L65.3251962,25.9001327 C66.1926765,25.9001327 66.6259808,25.5700157 66.6259808,25.0195393 C66.6259808,24.5298516 66.1830863,24.0097696 65.3156059,24.0097696 L63.146469,24.0097696 L63.146469,25.9001327 Z M65.3156059,23 C66.6887533,23 67.7733217,23.6095766 67.7733217,24.9992763 C67.7733217,25.5894343 67.4533566,26.1196478 66.771578,26.3898203 C67.6390584,26.6397298 68,27.4696659 68,27.9998794 C68,29.529731 66.7401918,30 65.3156059,30 C64.1891892,30 63.1255449,30 62,30 L62,23 L65.3156059,23 L65.3156059,23 Z" id="Fill-12" fill="#191445"></path>
            <path d="M71.5961347,21.898454 L74.4848657,21.898454 L74.4848657,21 L71.5961347,21 L71.5961347,21.898454 Z M76,22.7262043 L76,26.9028945 C76,29.0067599 74.6255507,30.0586927 72.9194259,29.9974736 C71.3437544,29.9560861 70,28.935194 70,26.9028945 L70,22.7262043 L71.1220691,22.7262043 L71.1220691,26.9028945 C71.1220691,28.1997034 71.8689783,28.9050156 72.9194259,28.9455409 C74.0500213,29.0067599 74.8787836,28.2609224 74.8787836,26.9028945 L74.8787836,22.7262043 L76,22.7262043 L76,22.7262043 Z" id="Fill-13" fill="#191445"></path>
            <polyline id="Fill-14" fill="#191445" points="81.0917997 30 79.9183599 30 77 23 78.26403 23 80.5 28.6657459 82.7461297 23 84 23 81.0917997 30"></polyline>
            <path d="M91,23 L91,27.0194738 C91,29.0441469 89.6262081,30.0564834 87.9189881,29.9975687 C86.3439454,29.9577391 85,28.9752748 85,27.0194738 L85,23 L86.1213758,23 L86.1213758,27.0194738 C86.1213758,28.267469 86.8683911,28.9462324 87.9189881,28.9852322 C89.0497442,29.0441469 89.8786242,28.3263837 89.8786242,27.0194738 L89.8786242,23 L91,23" id="Fill-15" fill="#191445"></path>
            <polyline id="Fill-16" fill="#191445" points="92.295398 23 97 23 97 23.5099505 93.4552239 28.9294416 97 28.9294416 97 30 92 30 92 29.3701604 95.4810323 24.0300326 92.295398 24.0300326 92.295398 23"></polyline>
            <path d="M103.246879,33 L102.632236,33 L102.844211,32.0623349 C102.601589,32.0095087 102.430477,31.8431062 102.430477,31.5613664 C102.430477,30.8103539 103.690409,30.7795387 103.690409,31.5930622 C103.690409,31.7488995 103.620602,31.8739215 103.246879,33 Z M104.870318,28.1928156 L104.870318,23 L106,23 L106,30.2997007 L105.143587,30.2997007 L101.139898,25.1482655 L101.139898,30.2997007 L100,30.2997007 L100,23 L100.86748,23 L104.870318,28.1928156 L104.870318,28.1928156 Z" id="Fill-17" fill="#191445"></path>
            <path d="M109.045069,21.9735577 L111.955748,21.9735577 L111.955748,21 L109.045069,21 L109.045069,21.9735577 Z M113,30 L108,30 C108,27.6115385 108,25.2126923 108,22.8250962 L112.970607,22.8250962 L112.970607,23.9414423 L109.083442,23.9414423 L109.083442,25.8790385 L112.816297,25.8790385 L112.816297,26.9451923 L109.083442,26.9451923 L109.083442,28.8724038 L113,28.8724038 L113,30 L113,30 Z" id="Fill-18" fill="#191445"></path>
            <path d="M120.913115,24.6294777 L118.602459,27.9399349 L118.369672,27.9399349 L116.087705,24.6294777 L116.087705,30 L115,30 L115,23 C115.427869,23 115.82623,23 116.262295,23 L118.504918,26.2792184 L120.737705,23 L122,23 L122,30 L120.913115,30 L120.913115,24.6294777" id="Fill-19" fill="#191445"></path>
            <path d="M125.045069,21.9735577 L127.955748,21.9735577 L127.955748,21 L125.045069,21 L125.045069,21.9735577 Z M129,30 L124,30 C124,27.6115385 124,25.2126923 124,22.8250962 L128.971424,22.8250962 L128.971424,23.9414423 L125.083442,23.9414423 L125.083442,25.8790385 L128.816297,25.8790385 L128.816297,26.9451923 L125.083442,26.9451923 L125.083442,28.8724038 L129,28.8724038 L129,30 L129,30 Z" id="Fill-20" fill="#191445"></path>
            <path d="M136,23 L136,27.0251036 C136,28.7823564 134.838055,30 132.995349,30 C131.252431,30 130,28.9398461 130,27.083955 L131.101903,27.083955 C131.101903,28.2916519 131.772516,28.9688573 132.995349,28.9688573 C134.21649,28.9688573 134.877801,28.1640024 134.877801,27.0251036 L134.877801,24.0203671 L132.624101,24.0203671 L132.624101,23 L136,23" id="Fill-21" fill="#191445"></path>
            <path d="M144,23 L144,27.0194738 C144,29.0441469 142.626208,30.0564834 140.918988,29.9975687 C139.343945,29.9577391 138,28.9752748 138,27.0194738 L138,23 L139.121376,23 L139.121376,27.0194738 C139.121376,28.267469 139.868391,28.9462324 140.918988,28.9852322 C142.050597,29.0441469 142.879477,28.3263837 142.879477,27.0194738 L142.879477,23 L144,23" id="Fill-22" fill="#191445"></path>
            <path d="M63.1692486,38.825003 L65.3817452,38.825003 C67.312283,38.825003 67.3025906,36.0285439 65.3817452,36.0285439 L63.1692486,36.0285439 L63.1692486,38.825003 Z M63.1692486,39.8527038 L63.1692486,42 L62,42 L62,35.0101168 C63.1172624,35.0101168 64.265364,35 65.3817452,35 C68.8674629,35 68.8780363,39.8324702 65.3817452,39.8527038 L63.1692486,39.8527038 L63.1692486,39.8527038 Z" id="Fill-23" fill="#191445"></path>
            <path d="M71.9995497,36.1794717 L70.4208038,39.5093475 L73.5791962,39.5093475 L71.9995497,36.1794717 Z M74.0159856,40.5300929 L69.9732072,40.5300929 L69.2689407,42 L68,42 L71.3493189,35 L72.6506811,35 L76,42 L74.7310593,42 L74.0159856,40.5300929 L74.0159856,40.5300929 Z" id="Fill-24" fill="#191445"></path>
            <path d="M78.1121051,36.0285439 L78.1121051,38.5644948 L80.2281241,38.5644948 C81.1523623,38.5644948 81.5599665,37.9751897 81.5599665,37.316753 C81.5599665,36.6869806 81.1523623,36.0285439 80.2390271,36.0285439 L78.1121051,36.0285439 Z M83,42 L81.6983506,42 L79.5831703,39.5829218 L78.1121051,39.5829218 L78.1121051,42 L77,42 L77,35 C78.0827509,35 79.1554375,35.0101168 80.2390271,35.0101168 C81.8476377,35.0101168 82.6922002,36.1179092 82.6922002,37.2965193 C82.6922002,38.2947128 82.1755661,39.2735156 80.8043053,39.4733229 L82.8809058,41.8001927 L83,42 L83,42 Z" id="Fill-25" fill="#191445"></path>
            <path d="M85.4123985,36.0097696 L83,36.0097696 L83,35 C85.1077491,35 86.8922509,35 89,35 L89,36.0097696 L86.5982288,36.0097696 L86.5982288,42 L85.4123985,42 L85.4123985,36.0097696" id="Fill-26" fill="#191445"></path>
            <polyline id="Fill-27" fill="#191445" points="95.8703178 39.9796165 95.8703178 35 97 35 97 42 96.1427355 42 92.1398978 37.0600651 92.1398978 42 91 42 91 35 91.8674801 35 95.8703178 39.9796165"></polyline>
            <path d="M104,42 L99,42 C99,39.6697624 99,37.3293933 99,35 L103.971424,35 L103.971424,36.0899771 L100.083442,36.0899771 L100.083442,37.9794958 L103.817113,37.9794958 L103.817113,39.0196599 L100.083442,39.0196599 L100.083442,40.8998914 L104,40.8998914 L104,42" id="Fill-28" fill="#191445"></path>
            <path d="M107.112788,36.0285439 L107.112788,38.5644948 L109.228512,38.5644948 C110.152621,38.5644948 110.560168,37.9751897 110.560168,37.316753 C110.560168,36.6869806 110.152621,36.0285439 109.239413,36.0285439 L107.112788,36.0285439 Z M112,42 L110.698532,42 L108.583648,39.5829218 L107.112788,39.5829218 L107.112788,42 L106,42 L106,35 C107.083438,35 108.155975,35.0101168 109.239413,35.0101168 C110.847799,35.0101168 111.692243,36.1179092 111.692243,37.2965193 C111.692243,38.2947128 111.175681,39.2735156 109.804612,39.4733229 L111.880922,41.8001927 L112,42 L112,42 Z" id="Fill-29" fill="#191445"></path>
            <path d="M113.888312,42 L115.169156,42 L115.169156,35.4198413 L113.888312,35.4198413 L113.888312,42 Z M113,34.8087302 L116,34.8087302 L116,34 L113,34 L113,34.8087302 Z" id="Fill-30" fill="#191445"></path>
            <path d="M118.147341,40.959836 L120.315606,40.959836 C120.955536,40.959836 121.843941,40.7597395 121.843941,39.9897479 C121.843941,39.2400193 120.986051,38.8997708 120.325196,38.8997708 C119.591979,38.8997708 118.879686,38.8997708 118.147341,38.8997708 L118.147341,40.959836 Z M118.147341,37.9001327 L120.325196,37.9001327 C121.192677,37.9001327 121.626853,37.5700157 121.626853,37.0195393 C121.626853,36.5298516 121.183086,36.0097696 120.315606,36.0097696 L118.147341,36.0097696 L118.147341,37.9001327 Z M120.315606,35 C121.688753,35 122.773322,35.6095766 122.773322,36.9992763 C122.773322,37.5894343 122.453357,38.1196478 121.771578,38.3898203 C122.639058,38.6397298 123,39.4696659 123,39.9998794 C123,41.529731 121.741064,42 120.315606,42 C119.189189,42 118.126417,42 117,42 L117,35 L120.315606,35 L120.315606,35 Z" id="Fill-31" fill="#191445"></path>
            <path d="M128,36.1794717 L126.421076,39.5093475 L129.578924,39.5093475 L128,36.1794717 Z M130.016663,40.5300929 L125.973429,40.5300929 L125.269084,42 L124,42 L127.348795,35 L128.650304,35 L132,42 L130.730916,42 L130.016663,40.5300929 L130.016663,40.5300929 Z" id="Fill-32" fill="#191445"></path>
        </g>
    </g>
</svg>