<svg width="178px" height="121px" viewBox="0 0 178 121" version="1.1" xmlns="http://www.w3.org/2000/svg" xmlns:xlink="http://www.w3.org/1999/xlink">
    <g id="Page-1" stroke="none" stroke-width="1" fill="none" fill-rule="evenodd">
        <g id="delfi">
            <rect id="Rectangle" x="0" y="0" width="178" height="121"></rect>
            <g id="Group-21" transform="translate(24.000000, 43.000000)" fill="#191445">
                <path d="M13.1579101,0 L0.574353219,0 C0.261069645,0 0,0.262773723 0,0.604379562 C0,0.945985401 0.261069645,1.20875912 0.574353219,1.20875912 C0.913743758,1.20875912 1.1748134,0.945985401 1.1748134,0.604379562 C1.1748134,0.945985401 0.913743758,1.20875912 0.574353219,1.20875912 C0.261069645,1.20875912 0,0.919708029 0,0.604379562 L0,35.3956204 C0,35.7372263 0.261069645,36 0.574353219,36 L13.1318032,36 C32.5031708,36 32.9992032,20.7591241 32.9992032,18 C33.0253101,15.2408759 32.5292778,0 13.1579101,0 Z M10.5472137,32.3211679 L8.66751222,32.3211679 L8.66751222,3.67883212 L10.5472137,3.67883212 C14.7765419,3.67883212 24.4622258,6.7270073 24.4622258,18 C24.4622258,29.2729927 14.7765419,32.3211679 10.5472137,32.3211679 Z" id="Fill-1"></path>
                <path d="M60.4279523,3.67883212 C60.7399783,3.67883212 61,3.41605839 61,3.07445255 L61,0.604379562 C61,0.262773723 60.7399783,0 60.4279523,0 L37.5980498,0 C37.2600217,0 37,0.262773723 37,0.604379562 L37,35.3956204 C37,35.7372263 37.2600217,36 37.5980498,36 L60.4279523,36 C60.7399783,36 61,35.7372263 61,35.3956204 L61,32.8992701 C61,32.5839416 60.7399783,32.2948905 60.4279523,32.2948905 L45.6587216,32.2948905 L45.6587216,19.8394161 L60.4279523,19.8394161 C60.7399783,19.8394161 61,19.5766423 61,19.2613139 L61,15.740146 C61,15.4248175 60.7399783,15.1357664 60.4279523,15.1357664 L45.6587216,15.1357664 L45.6587216,3.67883212 L60.4279523,3.67883212 Z" id="Fill-2"></path>
                <path d="M129.378378,0 L121.621622,0 C121.297297,0 121,0.262582057 121,0.603938731 L121,35.3960613 C121,35.7111597 121.297297,36 121.621622,36 L129.378378,36 C129.702703,36 130,35.7374179 130,35.3960613 L130,0.603938731 C130,0.262582057 129.72973,0 129.378378,0 Z" id="Fill-3"></path>
                <path d="M85.4372197,32.3211679 L75.4918315,32.3211679 L75.4918315,0.604379562 C75.4918315,0.262773723 75.2368215,0 74.9053086,0 L67.5865229,0 C67.25501,0 67,0.262773723 67,0.604379562 L67,35.3956204 C67,35.7372263 67.25501,36 67.5865229,36 L85.4117187,36 C85.7432317,36 85.9982416,35.7372263 85.9982416,35.3956204 L85.9982416,32.8992701 C86.0237426,32.5839416 85.7687327,32.3211679 85.4372197,32.3211679 Z" id="Fill-4"></path>
                <path d="M115.40195,0 L92.5720477,0 C92.2600217,0 92,0.262582057 92,0.603938731 L92,35.3960613 C92,35.7111597 92.2600217,36 92.5720477,36 L100.03467,36 C100.372698,36 100.632719,35.7374179 100.632719,35.3960613 L100.632719,19.6673961 L100.632719,19.8249453 L115.40195,19.8249453 C115.713976,19.8249453 116,19.5623632 116,19.2472648 L116,15.7286652 C116,15.4135667 115.739978,15.1247265 115.40195,15.1247265 L100.632719,15.1247265 L100.632719,3.64989059 L115.40195,3.64989059 C115.713976,3.64989059 116,3.38730853 116,3.04595186 L116,0.603938731 C116,0.262582057 115.713976,0 115.40195,0 Z" id="Fill-5"></path>
            </g>
        </g>
    </g>
</svg>