<?xml version="1.0" encoding="UTF-8"?>
<svg width="178px" height="191px" viewBox="0 0 178 191" version="1.1" xmlns="http://www.w3.org/2000/svg" xmlns:xlink="http://www.w3.org/1999/xlink">
    <!-- Generator: sketchtool 55.1 (78136) - https://sketchapp.com -->
    <title>FD290BEA-8DE3-4138-BF3E-5EF8FE34B105</title>
    <desc>Created with sketchtool.</desc>
    <g id="Page-1" stroke="none" stroke-width="1" fill="none" fill-rule="evenodd">
        <g id="Citi" transform="translate(-182.000000, -526.000000)" fill="#F1F1F1">
            <path d="M347.884982,651.945521 C358.760608,631.565437 356.660692,595.880037 343.705826,577.087385 C329.69777,556.761951 329.189913,560.672345 323.954338,554.361193 C323.094342,552.499866 322.998069,552.719753 321.075838,551.506515 C320.133783,550.910505 318.831835,550.191049 317.690127,549.572536 C316.200156,548.76371 315.514614,548.3773 314.367737,547.597407 C313.046405,546.697284 312.42806,546.551978 311.022732,545.697504 C308.805221,544.350533 306.411316,542.730953 304.323677,541.810898 C290.258116,535.612905 277.39823,532.242585 259.540544,534.446602 C248.176444,535.849508 238.276277,540.352055 228.714228,545.914819 C225.116587,548.005678 219.808646,552.181608 216.749876,555.101223 C215.004038,556.767738 212.933843,558.853453 211.523346,560.49425 C210.901125,561.217563 210.926324,561.337151 210.373884,561.983311 C208.823823,563.798346 208.122128,565.380635 205.832897,566.350839 C207.025649,559.945817 214.176348,554.781679 218.884683,550.906647 C222.25424,548.134267 226.609143,544.308098 230.562154,542.454487 C231.586267,541.974207 232.284085,541.770393 233.082054,541.263752 L241.546331,536.954732 C251.944016,533.275798 255.121674,532.107566 267.52927,530.630078 C276.950463,529.510067 288.657011,530.829391 296.855083,533.297658 C303.918554,535.425164 310.353343,538.196259 316.611093,541.710599 L324.053196,546.519831 C325.450124,547.578762 327.110027,549.019603 328.725994,550.341498 C340.477124,559.960605 353.765393,581.343684 356.490115,595.68651 C356.87973,597.73622 357.888336,600.136336 359.684571,600.126691 C361.726336,590.93 353.399684,573.251573 347.835876,565.107383 C341.138759,555.302465 337.090121,551.554736 328.164508,543.968623 C321.224447,538.068313 312.74014,533.84159 302.880873,530.579928 C283.271533,524.092608 267.343186,524.993375 248.030419,530.178087 C245.198246,530.938048 237.475724,532.402035 235.488234,533.600485 C225.970122,539.337487 228.177296,538.39943 221.576452,543.556495 C218.591987,545.889744 218.66823,543.246596 215.723824,544.536987 C212.35879,546.010618 209.52681,549.874077 206.99205,552.27805 C197.125675,561.639978 187.704483,577.275125 184.272251,592.958493 C183.146696,598.104628 183.727565,602.780127 182.944458,607.715376 C180.9182,620.493274 182.180088,639.566892 186.462625,650.727139 C189.487796,658.60875 192.330113,665.226587 196.798088,672.047595 C206.506162,686.868773 217.887707,698.035449 233.335982,707.025755 L244.302067,712.058732 C246.888711,713.171027 248.730822,712.799405 249.203788,715.598789 C250.689236,713.827475 251.558278,714.795108 254.562127,715.535781 C256.475958,716.00706 258.722546,717.581633 260.476783,716.772808 C259.744074,715.558284 259.37255,715.756311 257.679695,715.080575 C252.550085,713.036652 250.699574,712.992289 243.31866,709.778847 L234.78977,705.08856 C230.038791,702.563071 225.558539,699.273762 221.22625,695.819216 C216.870055,692.344096 212.499645,687.919346 208.898128,683.833428 C200.723316,674.55894 192.945873,661.109165 189.874827,648.804732 C189.660312,647.950901 189.480042,647.09064 189.2035,646.310747 L186.556313,633.822818 C186.267494,629.596738 185.665949,626.617329 185.80099,622.16686 C185.916646,618.2944 186.117592,614.618038 186.62868,610.921745 C187.065462,607.743023 186.872916,602.688186 189.272635,600.759993 C189.366324,606.253318 188.976709,611.363449 188.388086,616.607954 C187.788479,621.939258 188.807423,629.039304 188.254338,632.538856 C186.897469,641.142109 191.522453,650.418525 195.470295,658.063532 C199.097012,665.087068 203.776917,672.530447 208.756626,678.140789 C210.303456,679.883814 211.495563,681.194137 212.904122,682.455596 C217.386312,686.47529 221.582267,690.849891 226.781013,694.033114 C242.079386,703.396971 256.761547,708.792569 278.820358,708.57011 C289.993849,708.455666 300.412664,706.052979 309.799612,702.112366 L312.715587,700.739678 C313.824343,700.285758 314.479517,699.896776 315.462278,699.320054 L319.62205,697.107036 C320.346359,696.67562 320.234579,696.775919 321.081653,696.366363 C324.156576,694.887588 326.46713,693.963676 328.484988,691.190009 C331.083069,691.67479 329.860594,691.402824 331.69689,692.82952 C330.570043,691.55906 330.704438,691.826525 330.234702,690.118862 C338.343609,684.975299 347.037262,674.480501 352.442122,665.854745 C353.423591,664.285958 354.963314,662.975635 355.620426,661.215251 C356.198065,659.662537 357.15175,658.461515 357.25513,656.973097 C357.410201,654.76908 357.358511,656.240139 356.887483,655.617768 C355.88017,657.124832 355.03245,658.051959 354.008337,659.444579 C352.825276,661.0513 352.58944,661.876199 351.282969,663.555572 L338.096142,677.98391 C333.497649,682.193917 329.181514,685.388713 324.046088,688.334689 C322.908903,688.987278 322.83266,688.975062 321.720674,689.703519 C314.787074,694.247215 298.467172,700.764753 290.243901,701.075938 L290.884214,700.400202 C293.006744,698.710542 296.751056,699.062233 298.063342,696.521956 C299.241234,696.4313 304.609911,694.054331 306.19874,693.302728 L321.728427,684.959225 C329.628634,679.421536 333.502818,674.690744 339.12607,667.35988 C341.742889,663.947126 346.512606,655.815795 347.884982,651.945521 Z" id="Fill-1"></path>
        </g>
    </g>
</svg>