<?xml version="1.0" standalone="no"?>
<!DOCTYPE svg PUBLIC "-//W3C//DTD SVG 20010904//EN"
 "http://www.w3.org/TR/2001/REC-SVG-20010904/DTD/svg10.dtd">
<svg version="1.0" xmlns="http://www.w3.org/2000/svg"
 width="700.000000pt" height="700.000000pt" viewBox="0 0 700.000000 700.000000"
 preserveAspectRatio="xMidYMid meet">
<metadata>
Created by potrace 1.11, written by Peter Selinger 2001-2013
</metadata>
<g transform="translate(0.000000,700.000000) scale(0.100000,-0.100000)"
fill="#000000" stroke="none">
<path d="M265 6983 c-114 -35 -205 -124 -244 -240 l-21 -62 0 -3181 0 -3181
21 -61 c36 -108 97 -175 207 -226 l57 -27 3215 0 3215 0 65 31 c83 39 145 101
184 184 l31 65 0 3215 0 3215 -27 57 c-37 80 -71 122 -131 161 -110 73 193 67
-3341 66 -2822 0 -3187 -2 -3231 -16z m4645 -939 c595 -99 1086 -586 1150
-1141 23 -193 -25 -414 -121 -564 l-30 -47 -117 25 c-585 123 -1097 461 -1405
928 -70 106 -146 255 -193 377 -32 83 -84 265 -84 295 0 20 135 79 249 109
179 46 348 51 551 18z m-1085 -436 c36 -109 147 -339 218 -455 306 -493 846
-890 1439 -1059 51 -14 97 -30 101 -34 4 -4 -24 -21 -63 -39 -276 -123 -601
-132 -925 -26 -232 76 -442 209 -610 387 -313 331 -424 769 -285 1126 27 69
85 182 94 182 2 0 16 -37 31 -82z m-334 -1100 c153 -303 440 -572 784 -734 69
-33 125 -62 125 -65 0 -3 -572 -431 -1272 -950 -1010 -749 -1284 -947 -1328
-962 -45 -16 -74 -18 -156 -14 l-102 5 -93 -97 c-167 -172 -192 -286 -81 -368
61 -45 237 -70 380 -53 245 30 420 124 855 463 373 289 574 412 807 490 154
52 238 68 401 74 628 24 1275 -271 1844 -842 221 -223 253 -280 206 -373 -39
-77 -150 -115 -238 -81 -15 6 -93 78 -173 161 -410 427 -830 686 -1265 778
-129 27 -365 38 -473 20 -166 -27 -362 -111 -549 -237 -48 -32 -193 -140 -323
-241 -457 -355 -667 -470 -965 -528 -173 -34 -432 -18 -598 37 -77 25 -183
102 -239 173 -140 175 -137 379 7 596 48 73 197 228 246 257 27 16 29 21 23
59 -9 61 12 147 49 198 28 38 2087 2296 2094 2296 1 0 17 -28 34 -62z"/>
</g>
</svg>
