<svg width="1200" height="1200" viewBox="0 0 1200 1200" fill="none" xmlns="http://www.w3.org/2000/svg">
<g clip-path="url(#clip0_233_194)">
<path d="M947 738.379L926.874 694.724C926.574 694.102 926.042 693.622 925.394 693.388C924.745 693.154 924.031 693.183 923.404 693.471C917.297 696.395 900.571 706.839 886.206 706.839C849.84 706.839 847.827 672.027 847.827 643.063V573.439C847.845 572.761 848.121 572.116 848.599 571.636C849.077 571.157 849.72 570.88 850.395 570.862H901.335C902.022 570.863 902.683 570.594 903.175 570.112C903.668 569.631 903.954 568.976 903.972 568.286V521.011C903.954 520.322 903.668 519.667 903.175 519.186C902.683 518.704 902.022 518.435 901.335 518.435H850.395C849.72 518.418 849.077 518.141 848.599 517.661C848.121 517.182 847.845 516.537 847.827 515.859V438.089C847.843 437.753 847.777 437.418 847.636 437.113C847.495 436.808 847.283 436.542 847.017 436.336C846.751 436.131 846.44 435.994 846.11 435.935C845.78 435.877 845.441 435.899 845.121 436L791.058 454.103C790.332 454.327 789.697 454.78 789.247 455.394C788.797 456.008 788.556 456.752 788.56 457.514V594.395C720.756 655.874 665.028 707.883 613.464 707.883C564.328 707.883 523.66 662.279 523.66 609.225C523.66 554.988 561.344 515.929 607.842 515.929C652.813 515.929 668.359 547.051 668.359 547.051C641.683 568.982 613.886 589.503 585.079 608.529C584.482 608.902 583.968 609.394 583.568 609.974C583.168 610.554 582.891 611.21 582.755 611.902C582.618 612.594 582.625 613.307 582.774 613.996C582.923 614.685 583.211 615.337 583.622 615.909L609.161 651.279C609.516 651.905 610.002 652.446 610.585 652.867C611.169 653.287 611.835 653.577 612.54 653.716C613.245 653.855 613.971 653.839 614.669 653.671C615.368 653.503 616.022 653.185 616.587 652.741C658.978 624.942 699.333 594.135 737.343 560.558C738.111 559.881 738.66 558.989 738.919 557.996C739.179 557.004 739.137 555.957 738.8 554.988C729.126 527.827 711.284 504.351 687.739 487.8C664.193 471.25 636.106 462.444 607.356 462.597C527.755 462.597 463.768 524.353 463.768 609.225C463.838 631.791 468.563 654.098 477.648 674.742C457.383 689.85 432.26 706.839 410.399 706.839C371.188 706.839 357.933 677.388 357.933 637.214V573.16C357.95 572.482 358.227 571.837 358.704 571.358C359.182 570.879 359.825 570.602 360.501 570.584H411.44C412.14 570.584 412.81 570.305 413.305 569.809C413.8 569.313 414.077 568.64 414.077 567.938V521.011C414.059 520.322 413.773 519.667 413.281 519.186C412.788 518.704 412.128 518.435 411.44 518.435H360.639C359.964 518.418 359.321 518.141 358.843 517.661C358.365 517.182 358.089 516.537 358.072 515.859V438.089C358.087 437.753 358.022 437.418 357.881 437.113C357.739 436.808 357.527 436.542 357.261 436.336C356.996 436.131 356.684 435.994 356.354 435.935C356.024 435.877 355.685 435.899 355.365 436L301.58 454.172C300.854 454.396 300.219 454.849 299.769 455.464C299.319 456.078 299.078 456.821 299.082 457.584V515.859C299.064 516.549 298.778 517.204 298.285 517.685C297.792 518.166 297.132 518.436 296.444 518.435H255.637C255.291 518.435 254.948 518.504 254.628 518.637C254.308 518.77 254.017 518.965 253.772 519.21C253.278 519.706 253 520.379 253 521.081V568.286C253 568.988 253.278 569.661 253.772 570.157C254.017 570.403 254.308 570.598 254.628 570.731C254.948 570.864 255.291 570.932 255.637 570.932H296.167C296.854 570.932 297.515 571.201 298.007 571.682C298.5 572.163 298.786 572.819 298.804 573.508V648.285C298.804 712.757 339.125 761.981 406.929 761.981C447.736 761.981 489.029 736.151 509.155 721.599C522.586 735.346 538.672 746.197 556.429 753.488C574.186 760.779 593.239 764.356 612.423 764C681.823 764 726.933 723.549 789.878 670.564C793.21 724.245 825.411 761.981 880.723 761.981C903.502 761.418 925.734 754.863 945.196 742.974C945.959 742.521 946.529 741.802 946.798 740.955C947.067 740.107 947.015 739.19 946.653 738.379" fill="#191445"/>
</g>
<defs>
<clipPath id="clip0_233_194">
<rect width="694" height="328" fill="white" transform="translate(253 436)"/>
</clipPath>
</defs>
</svg>
